<svg xmlns="http://www.w3.org/2000/svg" xml:space="preserve" viewBox="0 0 1024 1024"><path d="M464.043 165.862c27.32.008 54.148-.192 80.971.107 21.065.235 42.265-.55 62.81 5.738 10.013 3.065 19.89 6.56 30.109 8.985 14.58 3.46 29.39 3.078 44.185 3.23 1.833.018 3.708-.254 5.491.044 5.478.912 8.888-.256 11.26-6.227 2.833-7.126 12.187-10.007 20.67-7.89 7.466 1.863 13.154 9.122 13.556 17.3.345 7.034-4.757 14.585-11.61 17.098-1.705.625-3.468 1.093-5.244 1.646-.387 2.622 1.072 4.557 2.013 6.613 21.877 47.853 43.861 95.658 65.548 143.598 2.423 5.356 5.02 8.734 11.305 7.647.718-.124 1.541.36 2.584.633-.799 14.946-4.913 28.764-12.962 41.038-20.95 31.947-50.717 47.502-88.948 44.68-40.913-3.019-76.49-37.38-82.088-77.975-.182-1.316-.326-2.645-.63-3.933-.766-3.238.398-4.98 3.769-4.485 4.638.681 6.799-1.586 8.6-5.587 18.664-41.454 37.471-82.844 56.264-124.24 3.442-7.583 7.014-15.105 10.489-22.672.749-1.631 1.88-3.17 1.6-5.202-1.35-1.364-3.11-.863-4.685-.865-40.49-.04-80.98-.074-121.47-.023-16.82.022-32.247 16.748-32.265 34.977-.048 48.159-.018 96.317-.02 144.476 0 7.773-.003 7.772-7.898 7.772-10.165 0-20.339-.241-30.492.104-4.918.167-6.162-1.54-6.151-6.273.11-48.824.007-97.648-.03-146.472-.015-19.867-17.733-35.51-37.662-34.83-23.134.79-46.315.216-69.475.231-15.664.01-31.327.007-46.99.04-1.467.002-2.932.22-4.304.33-.995 2.513.482 4.202 1.257 5.903 22.505 49.396 45.105 98.749 67.566 148.165 1.387 3.051 3.05 4.446 6.384 4.162 1.765-.15 3.656-.403 6.028.903-1.643 29.615-15.123 52.917-39.623 69.334-32.144 21.54-66.022 22.486-99.54 3.68-28.141-15.792-42.447-41.094-45.31-72.91.78-.46 1.095-.81 1.336-.764 8.624 1.618 11.028-4.186 13.924-10.634 21.29-47.395 42.882-94.653 64.369-141.959.75-1.652 1.39-3.355 2.062-4.986-1.146-1.653-2.869-.985-4.213-1.416-8.866-2.843-13.35-9.3-12.942-18.942.332-7.88 6.21-14.84 13.767-16.301 9.502-1.837 18.162 1.67 21.296 9.742 1.627 4.192 4.132 5.273 7.75 5.073 20.539-1.131 41.284-.103 61.383-5.935 11.803-3.424 23.216-8.12 35.442-10.192 10.046-1.704 20.154-2.022 30.764-2.536M759.118 336.26 705.412 218.6c-2.338 1.57-2.717 3.454-3.453 5.07-12.696 27.888-25.353 55.793-38.027 83.69a67387 67387 0 0 1-24.002 52.765c-1.188 2.609-2.286 5.08-.634 8.037 13.201 23.625 32.54 39.247 59.919 41.197 31.565 2.248 55.08-12.181 70.906-39.409 1.85-3.184 1.889-6.158.304-9.457-3.75-7.808-7.323-15.7-11.307-24.235m-449.821-92.59-54.18 119.42h132.162l-66.266-145.08c-4.135 9.045-7.774 17.006-11.716 25.66"/><path d="M506.258 584.913c-15.728-5.377-29.812-13.373-44.331-20.429-8.4-4.083-16.965-7.846-26.296-9.108-17.209-2.328-32.09 3.412-45.575 13.709-8.19 6.253-8.345 6.343-16.169-.23-20.886-17.546-38.102-38.14-50.995-62.251-.623-1.164-1.41-2.292-1.141-4.156 4.206-2.54 9.214-3.776 14.017-5.37 33.541-11.132 63.212-28.786 89.488-52.35 11.037-9.899 22.39-19.401 35.425-26.73 12.192-6.855 25.15-10.325 39.105-10.255 17.654.09 35.3.303 52.953.764 14.787.386 17.819 10.17 12.594 21.359-5.012 10.73-14.309 16.834-25.84 19.402-9.164 2.04-18.464 2.4-27.8 1.92-5.848-.301-11.22 1.123-16.263 3.967-1.455.82-3.153 1.735-2.922 3.673.284 2.391 2.44 1.824 3.992 1.885 10.449.413 18.288 6.655 26.541 11.897 23.068 14.65 46.37 28.904 70.985 40.841 11.536 5.594 22.493 5.227 33.07-3.262 14.699-11.797 28.611-24.461 42.643-37.003 5.565-4.973 11.13-9.532 19.359-8.643 5.361.58 9.686 2.583 12.034 7.575 2.413 5.133 2.706 10.42-1.065 15.057-9.992 12.29-20.906 23.758-31.919 35.127-5.217 5.386-10.72 10.503-15.769 16.039-11.83 12.972-26.61 15.86-43.256 13.625-25.16-3.378-48.614-12.253-71.99-21.54-4.451-1.767-8.86-4.444-14.215-3.82 1.329 4.29 21.218 13.712 49.273 23.205 17.52 5.928 35.394 10.01 54.603 6.122-1.355 3.443-3.81 4.94-6.093 6.467-21.354 14.275-44.913 23.097-70.025 27.919-15.198 2.918-29.755-.26-44.418-5.406M761.47 820.406c.484 4.684-1.62 5.923-5.594 5.792-9.926-.329-8.827-.137-8.85 8.965-.058 21.332-.035 42.664-.058 63.996-.008 7.164-.064 7.202-7.224 7.208-1.333.001-2.682-.14-3.997.014-4.053.477-5.198-1.455-5.093-5.244.201-7.283.058-14.576.058-23.108-13.124 8.019-24.097 17.097-36.161 25.082-3.56-4.495-6.153-9.043-8.825-14.25 8.224-5.249 16.185-10.336 24.154-15.411 3.232-2.059 6.386-4.266 9.745-6.092 4-2.174 3.198-4.273.492-6.876-6.906-6.644-18.344-8.424-28.022-4.183-2.249.985-4.427 2.133-6.764 3.267-3.018-3.643-4.01-7.913-5.598-11.872-1.06-2.645 1.206-3.418 2.921-4.398 13.478-7.698 31.079-6.246 43.143 3.559 1.275 1.035 2.35 2.371 4.855 2.904 0-7.048.11-13.937-.049-20.819-.074-3.223-2.802-2.753-4.891-2.763-9.667-.046-19.333-.028-29-.025-9.666.003-19.332.016-28.998.024-8.288.006-8.315.006-8.313 8.054.005 21.832.036 43.665.056 65.497.002 1.978 0 3.956 0 6.007-4.544 1.11-8.7.492-12.82.546-2.921.038-2.95-2.113-2.954-4.179-.02-8.333-.169-16.67.04-24.997.092-3.705-1.184-5.062-4.884-4.942-6.326.204-12.665.131-18.996.026-3.004-.05-4.454.736-4.593 4.188-.344 8.49-7.182 11.951-14.318 7.421-4.28-2.717-7.856-6.225-10.14-10.816-3.133-6.302-1.242-11.642 5.177-14.15 2.505-.98 3.846-2.16 3.807-5.002a777 777 0 0 1 .027-22.997c.055-3.488-1.55-4.723-4.86-4.672-6.332.097-12.667-.011-19 .023-5.919.032-6.556.61-6.569 6.646-.046 22.166.02 44.332-.092 66.497-.012 2.267 1.43 5.794-1.685 6.57-4.126 1.027-8.676 1.236-12.784-.266-1.818-.666-1.11-3.29-1.113-5.062-.04-22.166-.028-44.332-.043-66.498-.006-7.578-.287-7.85-7.896-7.893-4.167-.023-8.348.218-12.496-.062-4.618-.311-6.11 1.584-6.076 6.102.167 21.832.134 43.665.054 65.497-.01 2.716 1.41 6.707-1.272 7.895-4.047 1.792-8.839.977-13.283.367-1.585-.218-1.503-2.028-1.533-3.332a612 612 0 0 1-.138-11.997c-.024-7.045-.58-7.435-7.035-4.81-15.022 6.11-31.835 2.212-41.87-9.708-5.192-6.168-8.417-16.057-8.807-27.397 3.534-.344 7.116-.604 10.673-1.056 10.554-1.339 11.2-9.531 9.139-16.72-.821-2.862-3.42-4.594-6.541-4.63-9.83-.111-19.663-.064-29.495-.105-4.138-.017-3.718 2.964-3.72 5.617-.016 22.333.037 44.666-.08 66.998-.012 2.43 1.565 6.154-1.68 7.058-4.09 1.138-8.671 1.183-12.801-.193-1.843-.614-1.114-3.276-1.117-5.044-.038-22.5-.023-44.998-.032-67.498-.003-6.946-.017-6.954-6.882-6.972-4.5-.013-9.017.244-13.495-.066-4.516-.312-6.073 1.177-6.025 5.892.226 22.664-.048 45.333.213 67.995.059 5.092-1.454 6.666-6.492 6.454-10.616-.448-9.188.94-9.31-9.476-.054-4.624-.009-9.249-.009-14.98-7.763 4.835-15.24 6.683-23.436 6.45-15.002-.425-25.91-7.983-30.134-22.303-1.155-3.917-3.038-4.98-6.711-4.848-5.327.193-10.668.153-15.997.014-2.982-.078-4.46.942-3.976 4.052.744 4.784.324 9.093-4.847 11.287-4.03 1.71-9.5-.199-13.291-4.616a26 26 0 0 1-2.852-4.095c-6.857-12.104-2.011-20.921 11.865-21.153 13.996-.234 27.999-.017 41.998-.087 8.24-.041 11.896-4.029 11.371-12.142-.363-5.617-3.11-8.29-9.003-8.314-20.5-.084-40.999-.036-61.497-.148-2.134-.012-5.367 1.2-6.081-1.78-.875-3.65-1.315-7.748.362-11.254.863-1.801 3.646-1.12 5.612-1.122q59.997-.065 119.994-.077c51.664-.01 103.328.007 154.993 0 7.68 0 7.811-.164 7.636-7.839-.367-16.085 7.634-24.872 24.594-27.37 23.246-3.423 43.215 4.609 61.755 17.533 4.497 3.134 8.585 6.859 12.825 10.357.759.626 1.87 1.438 1.916 2.217.335 5.685 4.294 5.183 8.2 5.179 31.166-.033 62.33-.008 93.496 0 7.635.002 7.744.127 7.026 8.459M471.26 863.628c6.424 11.726 24.373 14.327 34.962 5.145 3.073-2.666 4.844-5.757 4.813-9.919-.068-9.311-.05-18.624.02-27.936.025-3.295-1.233-4.91-4.719-4.781-4.318.159-8.648.13-12.969.02-3.873-.098-5.212.976-4.356 5.316 2.884 14.63-1.195 21.877-14.876 27.928-1.523.674-3.89.828-2.875 4.227m-117.9-16.153c-2.572 5.925-7.481 9.159-13.202 11.447-5.381 2.153-5.692 3.391-2.176 8.195 1.832 2.503 4.185 4.397 7.061 5.34 6.484 2.124 13.177 2.323 19.596.1 5.72-1.979 10.658-5.547 10.895-12.278.358-10.138.065-20.299.119-30.45.013-2.547-1.134-3.639-3.606-3.62-4.493.035-8.99.15-13.478-.012-3.676-.132-4.903 1.528-4.03 4.871 1.394 5.338.98 10.534-1.18 16.407m231.151-35.577h48.752c.42-3.127-.778-4.152-1.942-5.047-14.868-11.434-31.35-18.084-50.442-16.397-5.724.506-10.685 2.752-12.868 8.716-2.8 7.65.666 12.799 8.516 12.753 2.33-.014 4.66-.015 7.984-.025m58.002 14.97c-8.066-1.502-16.201-.396-24.301-.629-2.465-.07-2.921 1.689-2.931 3.72-.038 7.805-.069 15.612-.164 23.417-.035 2.865 1.104 4.293 4.121 4.26 6.81-.076 13.62-.023 20.43-.002 2.281.007 4-.669 3.935-3.326-.223-8.94.73-17.901-1.09-27.44M598.035 744.672c-8.822-23.825-16.875-47.537-26.503-70.805-2.8 1.371-2.097 3.413-2.156 5.098-.74 21.288-1.488 42.577-2.09 63.87-.094 3.338-1.07 4.801-4.648 4.663-6.133-.236-12.282-.065-18.802-.065 0-6.066-.247-11.662.047-17.23.825-15.601 1.871-31.19 2.835-46.785.984-15.924 2.011-31.845 2.92-47.774.146-2.546 1.274-3.621 3.681-3.617 7.328.013 14.657.079 21.984.029 3.184-.022 4.132 2.078 5.044 4.563 8.249 22.487 16.555 44.954 24.84 67.428.74 2.005 1.192 4.16 3.088 5.636 2.429-.972 2.464-3.412 3.145-5.3 8.128-22.533 16.236-45.072 24.159-67.677 1.182-3.374 2.862-4.844 6.45-4.737 6.157.184 12.326.113 18.487-.001 3.18-.06 4.75.818 4.966 4.448.736 12.432 1.895 24.838 2.8 37.261 1.314 18.058 2.567 36.12 3.803 54.184.351 5.14.21 10.31 1.131 15.415.649 3.593-1.304 4.924-4.585 4.584-4.99-.518-9.97-.649-14.952-.021-2.98.375-4.072-.808-4.216-3.88-.402-8.63-1.25-17.24-1.728-25.867-.782-14.117-1.4-28.242-2.121-42.362-.049-.959-.378-1.903-.694-3.41-2.46 3.46-3.291 7.014-4.541 10.337-7.321 19.463-14.697 38.91-21.662 58.501-1.723 4.845-3.884 7.28-9.23 6.34-2.423-.427-4.987-.145-7.482-.045-1.908.077-3.225-.55-3.97-2.781M76.65 707c.001-23.322.133-46.144-.097-68.963-.049-4.882 1.696-5.627 6.23-6.278 12.156-1.745 19.144 2.825 25.194 13.628 11.13 19.876 24.1 38.721 36.315 57.989.798 1.258 1.692 2.455 3.397 4.915v-6.753c.002-20.99.137-41.98-.095-62.966-.054-4.86 1.069-7.219 6.337-6.61 5.233.604 11.939-2.212 15.393 1.405 3.195 3.345.988 9.883 1.004 15.002.096 30.65.056 61.301.06 91.952v7.116c-7.11 0-13.717.108-20.317-.057-2.332-.059-2.978-2.47-4.03-4.083-14.47-22.17-28.895-44.369-43.339-66.556-.791-1.216-1.652-2.387-3.08-4.441v74.69H76.648zM503.194 661.398c14.253 4.456 19.951 11.928 21.265 25.941 1.092 11.653.339 23.284.616 34.92.198 8.287.587 8.73 8.559 9.721-.094 1.931-.242 3.885-.276 5.841-.18 10.713-.268 10.597-11.536 11.304-7.72.485-14.11-2.222-17.563-10.733-6.64 8.33-15.17 11.203-24.931 10.857-20.07-.712-30.664-14.199-26.587-33.83 2.139-10.3 8.998-16.036 18.731-18.588 8.386-2.198 16.997-3.02 25.664-3.175 5.363-.096 6.48-1.542 5.207-6.71-1.574-6.39-8.77-10.504-16.178-9.29-6.431 1.054-11.935 3.975-16.849 8.163-1.238 1.056-2.15 2.575-4.21 3.011-3.329-3.312-5.948-7.345-8.697-11.272-1.74-2.486.012-4.02 1.594-5.53 6.612-6.307 14.692-9.627 23.53-11.22 7.094-1.28 14.209-1.224 21.66.59m-23.944 51.266c-6.476 5.82-5.593 15.76 1.872 18.357 4.986 1.734 10.223 1.581 14.999-1.1 6.023-3.38 8.952-12.208 6.449-18.748-.494-1.29-1.382-1.814-2.652-1.83-6.828-.08-13.668-.227-20.668 3.321M258.206 700.068a40424 40424 0 0 1-19.757 51.619c-2.15 5.605-4.547 11.096-8.015 16.034-8.34 11.88-22.15 16.998-36.452 13.825-2.476-.55-3.482-1.549-3.286-3.946.352-4.304.724-8.607 1.047-12.913.153-2.048 1.265-2.958 3.242-2.97 1.831-.012 3.663-.014 5.495-.037 11.43-.143 19.253-11.764 14.888-22.287-10.197-24.588-20.477-49.141-30.72-73.71-.437-1.05-1.216-2.045-.317-3.928 6.945 0 14.213-.098 21.475.05 2.779.056 3.056 2.746 3.793 4.682 5.674 14.923 11.273 29.875 16.945 44.799.693 1.825 1.028 3.874 2.751 5.421 2.406-1.503 2.486-4.17 3.21-6.375 4.822-14.689 9.627-29.385 14.208-44.15 1.08-3.482 2.84-4.732 6.428-4.585 6.12.25 12.256.069 19.554.069-5.018 13.282-9.694 25.658-14.489 38.402M360.961 666.966c-.555-1.748-1.617-3.003-.97-5.234 7.124 0 14.393-.015 21.663.008 2.666.009 3.004 2.27 3.688 4.074 5.726 15.082 11.395 30.186 17.145 45.258.694 1.818 1.068 3.854 3.15 5.708 1.388-4.11 2.722-7.934 3.974-11.784 4.216-12.966 8.478-25.918 12.544-38.93.998-3.195 2.542-4.611 6.028-4.474 6.267.247 12.55.07 18.648.07.802 2.853-.472 4.582-1.16 6.39-11.118 29.227-22.235 58.454-33.458 87.64-3.866 10.054-9.675 18.669-19.795 23.421-7.474 3.51-15.364 3.789-23.441 2.417-2.59-.44-3.406-1.648-3.211-3.996.344-4.138.708-8.275 1.032-12.415.192-2.442 1.458-3.55 3.911-3.451 1.829.073 3.696-.219 5.49.043 9.72 1.422 19.344-13.494 15.187-22.67-10.705-23.632-20.26-47.784-30.425-72.075M908.282 687.774c-1.265-8.568-11.48-12.291-21.759-8.687-5.79 2.03-10.454 5.694-15.022 10.1-3.962-3.854-6.64-8.268-9.641-12.399-1.624-2.235.264-3.738 1.716-5.057 5.785-5.256 12.478-8.583 20.19-10.27 9.135-2 18.108-2.105 27.092.45 12.407 3.53 19.241 12.311 19.443 25.265.164 10.49.051 20.984.126 31.476.015 2.152.298 4.304.49 6.452.43 4.822 2.575 7.497 8.135 5.914.637 4.87.32 9.408-.625 13.956-.304 1.46-.933 2.618-2.313 2.953-6.92 1.682-13.79 2.235-20.389-1.34-2.965-1.606-3.85-4.887-6.09-7.565-9.88 10.756-22 12.249-35.178 8.397-10.274-3.004-16.44-11.025-16.794-21.143-.51-14.583 4.159-23.468 14.937-27.678 9.898-3.866 20.395-4.581 30.867-4.841 4.218-.105 5.933-1.408 4.815-5.983m-1.467 21.697c-6.967-.352-13.947-.538-20.513 2.32-4.503 1.96-6.217 5.794-5.907 10.504.29 4.395 2.63 7.724 6.828 8.842 6.712 1.788 13.338 1.341 18.384-4.164 4.675-5.1 3.709-11.165 1.208-17.502M332.78 662.856c11.886 4.621 16.087 13.988 16.477 25.374.393 11.48.061 22.984.107 34.476.028 7.266 1.59 8.841 8.762 8.925.074.788.393 1.668.185 2.396-1.393 4.886 2.865 12.454-5.054 14.21-13.964 3.097-20.593-.04-24.422-10.556-6.25 9.366-15.408 12.023-25.64 11.528-22.398-1.083-30.074-17.076-25.396-35.368 3.138-12.268 13.053-16.451 24.397-18.138 7.064-1.05 14.127-2.294 21.312-2.048 3.89.133 4.428-2.036 3.901-5.16-1.275-7.556-8.272-12.053-16.448-10.769-6.647 1.045-12.312 3.89-17.16 8.497-1.063 1.01-1.937 2.308-4.02 2.736-3.444-3.486-6.325-7.73-9.232-11.929-1.584-2.288.44-3.726 1.761-5.092 5.021-5.188 11.404-8.102 18.196-9.946 10.65-2.89 21.344-2.825 32.274.864m-33.263 61.014c1.48 5.42 5.21 7.727 10.645 7.976 11.746.538 17.723-5.628 17.552-17.904-.046-3.349-.932-4.88-4.53-4.69-4.305.228-8.6.133-12.882.985-7.928 1.576-10.754 4.765-10.785 13.633M778.103 729.581c3.77-1.649 5.71-.823 6.265 3.087a36 36 0 0 0 1.815 7.233c1.366 3.752.326 5.928-3.56 7.018-8.463 2.375-16.976 3.379-25.615 1.183-10.178-2.588-16.132-10.835-16.3-22.963-.181-12.995-.233-25.997.016-38.99.088-4.634-1.51-6.464-6.046-5.98-1.48.159-2.998-.072-4.495-.023-2.57.084-3.626-1.208-3.54-3.662.024-.666-.05-1.334-.03-2 .118-3.818-.994-8.364.7-11.267 2.016-3.452 7.002-1.204 10.672-1.505 2.868-.236 3.649-1.634 3.723-4.177.117-3.992.415-7.978.634-11.967.137-2.48 1.135-3.643 3.903-4.068 5.299-.814 10.59-.75 16.44-1.099 1.15 5.16.636 10.299.481 15.334-.136 4.442 1.08 6.474 5.88 6.016 3.962-.377 7.992.016 11.989-.085 2.745-.07 4.04 1.1 3.95 3.83-.005.165.006.332.018.498 1.015 14.376 1.015 14.376-13.339 14.375-8.8 0-8.784 0-8.73 8.921.06 10.151-.177 20.313.213 30.45.334 8.702 2.934 10.702 11.572 10.21.997-.057 1.989-.203 3.384-.369"/><path d="M577.93 475.91c6.4-4.818 12.374-9.622 18.639-14.01 5.202-3.644 10.967-5.632 17.412-3.287 7.65 2.783 9.235 9.443 3.3 14.957-5.363 4.981-11.115 9.54-16.614 14.378-1.327 1.167-3.106 1.968-3.885 4.223 2.439.828 4.076-.71 5.722-1.74 10.066-6.297 19.504-13.36 26.998-22.721 5.108-6.38 11.69-9.084 19.821-8.018 3.988.522 7.684 1.832 9.329 5.72 1.65 3.901 1.04 7.808-1.76 11.237-3.6 4.408-7.679 8.342-12.099 11.88-8.958 7.171-17.237 15.198-27.008 21.353-2.587 1.63-5.193 2.175-8.059 1.225-16.853-5.59-32.508-13.606-47.272-23.414-.393-.26-.645-.733-1.354-1.566 5.593-3.391 11.061-6.706 16.83-10.216M799.65 678.003c.007-4.493.092-8.488-.003-12.478-.066-2.738 1.055-4.045 3.825-3.831.165.013.333-.01.5-.01 4.656.041 9.763-1.117 13.858.42 5.447 2.044.765 8.367 3.09 12.362 2.257-1.324 3.07-3.815 4.645-5.653 6.18-7.207 13.824-9.94 23.179-8.192 2.79.521 4.141 1.643 3.67 4.65-.966 6.157-1.796 12.335-2.767 19.099-11.93-4.375-19.551.646-25.63 9.6-1.851 2.725-2.74 5.52-2.67 8.854.276 13.119.289 26.244.571 39.363.077 3.584-.49 5.624-4.85 5.316-5.452-.385-10.95-.092-17.418-.092zM539.11 136.646c-5.803 13.704-18.493 21.035-31.104 18.282-14.226-3.106-23.566-14.458-23.3-28.317.29-15.008 12.945-27.041 28.316-26.923 15.066.117 27.252 12.264 27.352 27.231.021 3.169.022 6.32-1.263 9.727M715.166 738.865c-.005.978-.01 1.477-.012 1.977-.037 6.59-.037 6.587-6.463 6.583-5.138-.004-10.275 0-15.928 0-.228-3.147-.597-6.078-.628-9.014-.246-23.471 1.105-46.948-.115-70.413-.263-5.054 1.55-6.962 6.593-6.41 3.292.36 6.655.06 9.986.072 6.495.023 6.517.028 6.524 6.774.024 23.317.031 46.635.043 70.431M695.94 629.6c8.662-3.376 16.285-1.486 19.09 4.494 2.864 6.108.785 12.811-4.929 15.892-6.125 3.302-15 1.411-18.353-3.91-3.763-5.972-2.437-11.627 4.192-16.476M720.468 355.482c5.652-22.2.456-41.484-13.538-58.726-3.98-4.904-3.825-10.533.286-13.744 3.914-3.058 9.386-2.18 13.083 2.643 25.652 33.466 25.9 74.238-.475 107.198-3.807 4.758-9.104 5.354-13.168 1.95-3.985-3.337-4.202-8.558-.255-13.263 6.398-7.627 11.37-15.986 14.067-26.058"/><path d="M710.286 337.195c.285 11.25-2.673 21.123-8.275 30.294-3.289 5.384-7.71 6.963-12.474 4.245-4.116-2.348-5.384-7.714-2.692-12.784 2.023-3.813 4.504-7.365 5.681-11.608 2.271-8.189.737-15.788-3.308-23.049-.971-1.743-2.12-3.413-2.877-5.244-1.964-4.757-.593-9.276 3.256-11.339 4.028-2.158 8.386-1.115 11.41 3.016 4.19 5.724 6.692 12.232 8.211 19.117.5 2.264.713 4.592 1.068 7.352M664.61 346.167c-2.732-7.256.15-15.074 5.868-16.271 4.132-.866 7.964-.17 10.348 3.9 2.33 3.976 1.501 9.804-2.086 13.224-3.126 2.98-6.841 4.002-10.907 2.002-1.14-.561-2.008-1.673-3.222-2.855"/></svg>