<svg xmlns="http://www.w3.org/2000/svg" xmlns:xlink="http://www.w3.org/1999/xlink" contentStyleType="text/css" data-diagram-type="ACTIVITY" height="524px" preserveAspectRatio="none" style="width:482px;height:524px;background:#FFFFFF;" version="1.1" viewBox="0 0 482 524" width="482px" zoomAndPan="magnify"><defs/><g><ellipse cx="254.5537" cy="20" fill="#222222" rx="10" ry="10" style="stroke:#222222;stroke-width:1;"/><rect fill="#F1F1F1" height="33.9688" rx="12.5" ry="12.5" style="stroke:#181818;stroke-width:0.5;" width="196.6426" x="156.2324" y="50"/><text fill="#000000" font-family="sans-serif" font-size="12" lengthAdjust="spacing" textLength="176.6426" x="166.2324" y="71.1387">Retrieve available transcripts</text><polygon fill="#F1F1F1" points="194.3921,103.9688,314.7153,103.9688,326.7153,115.9688,314.7153,127.9688,194.3921,127.9688,182.3921,115.9688,194.3921,103.9688" style="stroke:#181818;stroke-width:0.5;"/><text fill="#000000" font-family="sans-serif" font-size="11" lengthAdjust="spacing" textLength="120.3232" x="194.3921" y="119.7769">Transcripts available?</text><text fill="#000000" font-family="sans-serif" font-size="11" lengthAdjust="spacing" textLength="19.0083" x="163.3838" y="113.3745">yes</text><text fill="#000000" font-family="sans-serif" font-size="11" lengthAdjust="spacing" textLength="13.7017" x="326.7153" y="113.3745">no</text><rect fill="#F1F1F1" height="33.9688" rx="12.5" ry="12.5" style="stroke:#181818;stroke-width:0.5;" width="246.8516" x="11" y="137.9688"/><text fill="#000000" font-family="sans-serif" font-size="12" lengthAdjust="spacing" textLength="226.8516" x="21" y="159.1074">Process transcripts for each language</text><rect fill="#F1F1F1" height="33.9688" rx="12.5" ry="12.5" style="stroke:#181818;stroke-width:0.5;" width="152.0469" x="58.4023" y="191.9375"/><text fill="#000000" font-family="sans-serif" font-size="12" lengthAdjust="spacing" textLength="132.0469" x="68.4023" y="213.0762">Generate AI summary</text><rect fill="#F1F1F1" height="33.9688" rx="12.5" ry="12.5" style="stroke:#181818;stroke-width:0.5;" width="179.9434" x="44.4541" y="245.9063"/><text fill="#000000" font-family="sans-serif" font-size="12" lengthAdjust="spacing" textLength="159.9434" x="54.4541" y="267.0449">Create vector embeddings</text><rect fill="#F1F1F1" height="33.9688" rx="12.5" ry="12.5" style="stroke:#181818;stroke-width:0.5;" width="126.1836" x="71.334" y="299.875"/><text fill="#000000" font-family="sans-serif" font-size="12" lengthAdjust="spacing" textLength="106.1836" x="81.334" y="321.0137">Store in database</text><rect fill="#F1F1F1" height="33.9688" rx="12.5" ry="12.5" style="stroke:#181818;stroke-width:0.5;" width="224.082" x="22.3848" y="353.8438"/><text fill="#000000" font-family="sans-serif" font-size="12" lengthAdjust="spacing" textLength="204.082" x="32.3848" y="374.9824">Update video status to completed</text><rect fill="#F1F1F1" height="33.9688" rx="12.5" ry="12.5" style="stroke:#181818;stroke-width:0.5;" width="171.8164" x="48.5176" y="407.8125"/><text fill="#000000" font-family="sans-serif" font-size="12" lengthAdjust="spacing" textLength="151.8164" x="58.5176" y="428.9512">Notify user of completion</text><rect fill="#F1F1F1" height="33.9688" rx="12.5" ry="12.5" style="stroke:#181818;stroke-width:0.5;" width="193.6602" x="277.8516" y="137.9688"/><text fill="#000000" font-family="sans-serif" font-size="12" lengthAdjust="spacing" textLength="173.6602" x="287.8516" y="159.1074">Update video status to failed</text><rect fill="#F1F1F1" height="33.9688" rx="12.5" ry="12.5" style="stroke:#181818;stroke-width:0.5;" width="167.1289" x="291.1172" y="191.9375"/><text fill="#000000" font-family="sans-serif" font-size="12" lengthAdjust="spacing" textLength="147.1289" x="301.1172" y="213.0762">Generate error message</text><rect fill="#F1F1F1" height="33.9688" rx="12.5" ry="12.5" style="stroke:#181818;stroke-width:0.5;" width="180.6816" x="284.3408" y="245.9063"/><text fill="#000000" font-family="sans-serif" font-size="12" lengthAdjust="spacing" textLength="160.6816" x="294.3408" y="267.0449">Notify user - no transcripts</text><polygon fill="#F1F1F1" points="254.5537,447.7813,266.5537,459.7813,254.5537,471.7813,242.5537,459.7813,254.5537,447.7813" style="stroke:#181818;stroke-width:0.5;"/><ellipse cx="254.5537" cy="502.7813" fill="none" rx="11" ry="11" style="stroke:#222222;stroke-width:1;"/><ellipse cx="254.5537" cy="502.7813" fill="#222222" rx="6" ry="6" style="stroke:#222222;stroke-width:1;"/><line style="stroke:#181818;stroke-width:1;" x1="254.5537" x2="254.5537" y1="30" y2="50"/><polygon fill="#181818" points="250.5537,40,254.5537,50,258.5537,40,254.5537,44" style="stroke:#181818;stroke-width:1;"/><line style="stroke:#181818;stroke-width:1;" x1="134.4258" x2="134.4258" y1="171.9375" y2="191.9375"/><polygon fill="#181818" points="130.4258,181.9375,134.4258,191.9375,138.4258,181.9375,134.4258,185.9375" style="stroke:#181818;stroke-width:1;"/><line style="stroke:#181818;stroke-width:1;" x1="134.4258" x2="134.4258" y1="225.9063" y2="245.9063"/><polygon fill="#181818" points="130.4258,235.9063,134.4258,245.9063,138.4258,235.9063,134.4258,239.9063" style="stroke:#181818;stroke-width:1;"/><line style="stroke:#181818;stroke-width:1;" x1="134.4258" x2="134.4258" y1="279.875" y2="299.875"/><polygon fill="#181818" points="130.4258,289.875,134.4258,299.875,138.4258,289.875,134.4258,293.875" style="stroke:#181818;stroke-width:1;"/><line style="stroke:#181818;stroke-width:1;" x1="134.4258" x2="134.4258" y1="333.8438" y2="353.8438"/><polygon fill="#181818" points="130.4258,343.8438,134.4258,353.8438,138.4258,343.8438,134.4258,347.8438" style="stroke:#181818;stroke-width:1;"/><line style="stroke:#181818;stroke-width:1;" x1="134.4258" x2="134.4258" y1="387.8125" y2="407.8125"/><polygon fill="#181818" points="130.4258,397.8125,134.4258,407.8125,138.4258,397.8125,134.4258,401.8125" style="stroke:#181818;stroke-width:1;"/><line style="stroke:#181818;stroke-width:1;" x1="374.6816" x2="374.6816" y1="171.9375" y2="191.9375"/><polygon fill="#181818" points="370.6816,181.9375,374.6816,191.9375,378.6816,181.9375,374.6816,185.9375" style="stroke:#181818;stroke-width:1;"/><line style="stroke:#181818;stroke-width:1;" x1="374.6816" x2="374.6816" y1="225.9063" y2="245.9063"/><polygon fill="#181818" points="370.6816,235.9063,374.6816,245.9063,378.6816,235.9063,374.6816,239.9063" style="stroke:#181818;stroke-width:1;"/><line style="stroke:#181818;stroke-width:1;" x1="182.3921" x2="134.4258" y1="115.9688" y2="115.9688"/><line style="stroke:#181818;stroke-width:1;" x1="134.4258" x2="134.4258" y1="115.9688" y2="137.9688"/><polygon fill="#181818" points="130.4258,127.9688,134.4258,137.9688,138.4258,127.9688,134.4258,131.9688" style="stroke:#181818;stroke-width:1;"/><line style="stroke:#181818;stroke-width:1;" x1="326.7153" x2="374.6816" y1="115.9688" y2="115.9688"/><line style="stroke:#181818;stroke-width:1;" x1="374.6816" x2="374.6816" y1="115.9688" y2="137.9688"/><polygon fill="#181818" points="370.6816,127.9688,374.6816,137.9688,378.6816,127.9688,374.6816,131.9688" style="stroke:#181818;stroke-width:1;"/><line style="stroke:#181818;stroke-width:1;" x1="134.4258" x2="134.4258" y1="441.7813" y2="459.7813"/><line style="stroke:#181818;stroke-width:1;" x1="134.4258" x2="242.5537" y1="459.7813" y2="459.7813"/><polygon fill="#181818" points="232.5537,455.7813,242.5537,459.7813,232.5537,463.7813,236.5537,459.7813" style="stroke:#181818;stroke-width:1;"/><line style="stroke:#181818;stroke-width:1;" x1="374.6816" x2="374.6816" y1="279.875" y2="459.7813"/><line style="stroke:#181818;stroke-width:1;" x1="374.6816" x2="266.5537" y1="459.7813" y2="459.7813"/><polygon fill="#181818" points="276.5537,455.7813,266.5537,459.7813,276.5537,463.7813,272.5537,459.7813" style="stroke:#181818;stroke-width:1;"/><line style="stroke:#181818;stroke-width:1;" x1="254.5537" x2="254.5537" y1="83.9688" y2="103.9688"/><polygon fill="#181818" points="250.5537,93.9688,254.5537,103.9688,258.5537,93.9688,254.5537,97.9688" style="stroke:#181818;stroke-width:1;"/><line style="stroke:#181818;stroke-width:1;" x1="254.5537" x2="254.5537" y1="471.7813" y2="491.7813"/><polygon fill="#181818" points="250.5537,481.7813,254.5537,491.7813,258.5537,481.7813,254.5537,485.7813" style="stroke:#181818;stroke-width:1;"/><!--SRC=[VL0nRiCm3Dpr2exsq0_4Gn5qABeKHTC-WBPEZW1RCaZQW7zV9NNYT2d7k-FnZceivjpX4oOH2uWNZWEt0yY4atOI9zF6kHYe-jgHNVTSavsHg5gXjQCoXm_97LGV7IXa8N1tfe5JFtEFvbVxYWHX0ntVIETnP5atvaLmmHTqTjaTMtWVKwyRVIeeA2RoRDootWo_9tzTYnwPrDZc4YHJbyTfWC5lilTiCQmqAuHokD4nfyPXK52LSlslOIZzxsxt5X0fOSVIVg_uUEg9KlxxMIGVWtDgUVe1]--></g></svg>