<svg xmlns="http://www.w3.org/2000/svg" xmlns:xlink="http://www.w3.org/1999/xlink" contentStyleType="text/css" data-diagram-type="ACTIVITY" height="568px" preserveAspectRatio="none" style="width:407px;height:568px;background:#FFFFFF;" version="1.1" viewBox="0 0 407 568" width="407px" zoomAndPan="magnify"><defs/><g><ellipse cx="249.0972" cy="20" fill="#222222" rx="10" ry="10" style="stroke:#222222;stroke-width:1;"/><polygon fill="#F1F1F1" points="194.4624,50,303.7319,50,315.7319,62,303.7319,74,194.4624,74,182.4624,62,194.4624,50" style="stroke:#181818;stroke-width:0.5;"/><text fill="#000000" font-family="sans-serif" font-size="11" lengthAdjust="spacing" textLength="109.2695" x="194.4624" y="65.8081">User wants to chat?</text><text fill="#000000" font-family="sans-serif" font-size="11" lengthAdjust="spacing" textLength="19.0083" x="163.4541" y="59.4058">yes</text><text fill="#000000" font-family="sans-serif" font-size="11" lengthAdjust="spacing" textLength="13.7017" x="315.7319" y="59.4058">no</text><rect fill="#F1F1F1" height="33.9688" rx="12.5" ry="12.5" style="stroke:#181818;stroke-width:0.5;" width="133.6309" x="74.9258" y="137.9688"/><text fill="#000000" font-family="sans-serif" font-size="12" lengthAdjust="spacing" textLength="113.6309" x="84.9258" y="159.1074">User asks question</text><rect fill="#F1F1F1" height="33.9688" rx="12.5" ry="12.5" style="stroke:#181818;stroke-width:0.5;" width="261.4824" x="11" y="191.9375"/><text fill="#000000" font-family="sans-serif" font-size="12" lengthAdjust="spacing" textLength="241.4824" x="21" y="213.0762">Search vector store for relevant content</text><rect fill="#F1F1F1" height="33.9688" rx="12.5" ry="12.5" style="stroke:#181818;stroke-width:0.5;" width="228.7168" x="27.3828" y="245.9063"/><text fill="#000000" font-family="sans-serif" font-size="12" lengthAdjust="spacing" textLength="208.7168" x="37.3828" y="267.0449">Generate AI response with context</text><rect fill="#F1F1F1" height="33.9688" rx="12.5" ry="12.5" style="stroke:#181818;stroke-width:0.5;" width="168.6641" x="57.4092" y="299.875"/><text fill="#000000" font-family="sans-serif" font-size="12" lengthAdjust="spacing" textLength="148.6641" x="67.4092" y="321.0137">Display response to user</text><rect fill="#F1F1F1" height="33.9688" rx="12.5" ry="12.5" style="stroke:#181818;stroke-width:0.5;" width="214.0039" x="34.7393" y="353.8438"/><text fill="#000000" font-family="sans-serif" font-size="12" lengthAdjust="spacing" textLength="194.0039" x="44.7393" y="374.9824">Store chat message in database</text><polygon fill="#F1F1F1" points="141.7412,84,153.7412,96,141.7412,108,129.7412,96,141.7412,84" style="stroke:#181818;stroke-width:0.5;"/><polygon fill="#F1F1F1" points="89.6443,407.8125,193.8381,407.8125,205.8381,419.8125,193.8381,431.8125,89.6443,431.8125,77.6443,419.8125,89.6443,407.8125" style="stroke:#181818;stroke-width:0.5;"/><text fill="#000000" font-family="sans-serif" font-size="11" lengthAdjust="spacing" textLength="104.1938" x="89.6443" y="423.6206">Continue chatting?</text><rect fill="#F1F1F1" height="33.9688" rx="12.5" ry="12.5" style="stroke:#181818;stroke-width:0.5;" width="121.1152" x="81.1836" y="451.8125"/><text fill="#000000" font-family="sans-serif" font-size="12" lengthAdjust="spacing" textLength="101.1152" x="91.1836" y="472.9512">End chat session</text><rect fill="#F1F1F1" height="33.9688" rx="12.5" ry="12.5" style="stroke:#181818;stroke-width:0.5;" width="79.9414" x="316.4824" y="84"/><text fill="#000000" font-family="sans-serif" font-size="12" lengthAdjust="spacing" textLength="59.9414" x="326.4824" y="105.1387">User exits</text><polygon fill="#F1F1F1" points="249.0972,491.7813,261.0972,503.7813,249.0972,515.7813,237.0972,503.7813,249.0972,491.7813" style="stroke:#181818;stroke-width:0.5;"/><ellipse cx="249.0972" cy="546.7813" fill="none" rx="11" ry="11" style="stroke:#222222;stroke-width:1;"/><ellipse cx="249.0972" cy="546.7813" fill="#222222" rx="6" ry="6" style="stroke:#222222;stroke-width:1;"/><line style="stroke:#181818;stroke-width:1;" x1="141.7412" x2="141.7412" y1="171.9375" y2="191.9375"/><polygon fill="#181818" points="137.7412,181.9375,141.7412,191.9375,145.7412,181.9375,141.7412,185.9375" style="stroke:#181818;stroke-width:1;"/><line style="stroke:#181818;stroke-width:1;" x1="141.7412" x2="141.7412" y1="225.9063" y2="245.9063"/><polygon fill="#181818" points="137.7412,235.9063,141.7412,245.9063,145.7412,235.9063,141.7412,239.9063" style="stroke:#181818;stroke-width:1;"/><line style="stroke:#181818;stroke-width:1;" x1="141.7412" x2="141.7412" y1="279.875" y2="299.875"/><polygon fill="#181818" points="137.7412,289.875,141.7412,299.875,145.7412,289.875,141.7412,293.875" style="stroke:#181818;stroke-width:1;"/><line style="stroke:#181818;stroke-width:1;" x1="141.7412" x2="141.7412" y1="333.8438" y2="353.8438"/><polygon fill="#181818" points="137.7412,343.8438,141.7412,353.8438,145.7412,343.8438,141.7412,347.8438" style="stroke:#181818;stroke-width:1;"/><line style="stroke:#181818;stroke-width:1;" x1="141.7412" x2="141.7412" y1="108" y2="137.9688"/><polygon fill="#181818" points="137.7412,127.9688,141.7412,137.9688,145.7412,127.9688,141.7412,131.9688" style="stroke:#181818;stroke-width:1;"/><line style="stroke:#181818;stroke-width:1;" x1="205.8381" x2="284.4824" y1="419.8125" y2="419.8125"/><polygon fill="#181818" points="280.4824,272.8906,284.4824,262.8906,288.4824,272.8906,284.4824,268.8906" style="stroke:#181818;stroke-width:1;"/><line style="stroke:#181818;stroke-width:1;" x1="284.4824" x2="284.4824" y1="96" y2="419.8125"/><line style="stroke:#181818;stroke-width:1;" x1="284.4824" x2="153.7412" y1="96" y2="96"/><polygon fill="#181818" points="163.7412,92,153.7412,96,163.7412,100,159.7412,96" style="stroke:#181818;stroke-width:1;"/><line style="stroke:#181818;stroke-width:1;" x1="141.7412" x2="141.7412" y1="387.8125" y2="407.8125"/><polygon fill="#181818" points="137.7412,397.8125,141.7412,407.8125,145.7412,397.8125,141.7412,401.8125" style="stroke:#181818;stroke-width:1;"/><line style="stroke:#181818;stroke-width:1;" x1="141.7412" x2="141.7412" y1="431.8125" y2="451.8125"/><polygon fill="#181818" points="137.7412,441.8125,141.7412,451.8125,145.7412,441.8125,141.7412,445.8125" style="stroke:#181818;stroke-width:1;"/><line style="stroke:#181818;stroke-width:1;" x1="182.4624" x2="141.7412" y1="62" y2="62"/><line style="stroke:#181818;stroke-width:1;" x1="141.7412" x2="141.7412" y1="62" y2="84"/><polygon fill="#181818" points="137.7412,74,141.7412,84,145.7412,74,141.7412,78" style="stroke:#181818;stroke-width:1;"/><line style="stroke:#181818;stroke-width:1;" x1="315.7319" x2="356.4531" y1="62" y2="62"/><line style="stroke:#181818;stroke-width:1;" x1="356.4531" x2="356.4531" y1="62" y2="84"/><polygon fill="#181818" points="352.4531,74,356.4531,84,360.4531,74,356.4531,78" style="stroke:#181818;stroke-width:1;"/><line style="stroke:#181818;stroke-width:1;" x1="141.7412" x2="141.7412" y1="485.7813" y2="503.7813"/><line style="stroke:#181818;stroke-width:1;" x1="141.7412" x2="237.0972" y1="503.7813" y2="503.7813"/><polygon fill="#181818" points="227.0972,499.7813,237.0972,503.7813,227.0972,507.7813,231.0972,503.7813" style="stroke:#181818;stroke-width:1;"/><line style="stroke:#181818;stroke-width:1;" x1="356.4531" x2="356.4531" y1="117.9688" y2="503.7813"/><line style="stroke:#181818;stroke-width:1;" x1="356.4531" x2="261.0972" y1="503.7813" y2="503.7813"/><polygon fill="#181818" points="271.0972,499.7813,261.0972,503.7813,271.0972,507.7813,267.0972,503.7813" style="stroke:#181818;stroke-width:1;"/><line style="stroke:#181818;stroke-width:1;" x1="249.0972" x2="249.0972" y1="30" y2="50"/><polygon fill="#181818" points="245.0972,40,249.0972,50,253.0972,40,249.0972,44" style="stroke:#181818;stroke-width:1;"/><line style="stroke:#181818;stroke-width:1;" x1="249.0972" x2="249.0972" y1="515.7813" y2="535.7813"/><polygon fill="#181818" points="245.0972,525.7813,249.0972,535.7813,253.0972,525.7813,249.0972,529.7813" style="stroke:#181818;stroke-width:1;"/><!--SRC=[JL11Zi8m3Bpd5JwMBy01hPRLYZFY0TvsIgBjEYLsAVn-JOf4VOX6yend9cfSB8JKKtDM59fPJCaojP5jlo6B46eUq4qWdu8HR1K-PrirhBzArmbgASlklJo1InlfXjPo8VK7r3ig671p7sgp6CHMacy82Xleu-Wq7RCeQ4uM5-vzpJqa7GT-l7cUUl8ywmJLyrc5_g3A5r0IwjZuXnMxLIMQOnf0pQVR99aMaQFBVYc-_P9kEQH-gFR4u9wDv1UXVWNkoTHNqgK-1Ayy_WC0]--></g></svg>