<svg xmlns="http://www.w3.org/2000/svg" xmlns:xlink="http://www.w3.org/1999/xlink" contentStyleType="text/css" data-diagram-type="CLASS" height="991px" preserveAspectRatio="none" style="width:1628px;height:991px;background:#FFFFFF;" version="1.1" viewBox="0 0 1628 991" width="1628px" zoomAndPan="magnify"><defs/><g><!--class User--><g class="entity" data-entity="User" data-source-line="1" data-uid="ent0002" id="entity_User"><rect fill="#F1F1F1" height="259.8594" rx="2.5" ry="2.5" style="stroke:#181818;stroke-width:0.5;" width="251.1689" x="189.83" y="31.44"/><ellipse cx="295.2094" cy="47.44" fill="#ADD1B2" rx="11" ry="11" style="stroke:#181818;stroke-width:1;"/><path d="M298.1781,53.0806 Q297.6,53.3775 296.9594,53.5181 Q296.3188,53.6744 295.6156,53.6744 Q293.1156,53.6744 291.7875,52.0338 Q290.475,50.3775 290.475,47.2525 Q290.475,44.1275 291.7875,42.4713 Q293.1156,40.815 295.6156,40.815 Q296.3188,40.815 296.9594,40.9713 Q297.6156,41.1275 298.1781,41.4244 L298.1781,44.1431 Q297.5531,43.565 296.9594,43.2994 Q296.3656,43.0181 295.7406,43.0181 Q294.3969,43.0181 293.7094,44.0963 Q293.0219,45.1588 293.0219,47.2525 Q293.0219,49.3463 293.7094,50.4244 Q294.3969,51.4869 295.7406,51.4869 Q296.3656,51.4869 296.9594,51.2213 Q297.5531,50.94 298.1781,50.3619 L298.1781,53.0806 Z " fill="#000000"/><text fill="#000000" font-family="sans-serif" font-size="14" lengthAdjust="spacing" textLength="31.9102" x="315.7094" y="52.2867">User</text><line style="stroke:#181818;stroke-width:0.5;" x1="190.83" x2="439.9989" y1="63.44" y2="63.44"/><ellipse cx="200.83" cy="77.0884" fill="none" rx="3" ry="3" style="stroke:#038048;stroke-width:1;"/><text fill="#000000" font-family="sans-serif" font-size="14" lengthAdjust="spacing" textLength="40.4824" x="209.83" y="80.4351">id: str</text><ellipse cx="200.83" cy="93.3853" fill="none" rx="3" ry="3" style="stroke:#038048;stroke-width:1;"/><text fill="#000000" font-family="sans-serif" font-size="14" lengthAdjust="spacing" textLength="66.3154" x="209.83" y="96.732">email: str</text><ellipse cx="200.83" cy="109.6822" fill="none" rx="3" ry="3" style="stroke:#038048;stroke-width:1;"/><text fill="#000000" font-family="sans-serif" font-size="14" lengthAdjust="spacing" textLength="135.0371" x="209.83" y="113.0289">password_hash: str</text><ellipse cx="200.83" cy="125.9791" fill="none" rx="3" ry="3" style="stroke:#038048;stroke-width:1;"/><text fill="#000000" font-family="sans-serif" font-size="14" lengthAdjust="spacing" textLength="165.6963" x="209.83" y="129.3257">preferred_language: str</text><ellipse cx="200.83" cy="142.2759" fill="none" rx="3" ry="3" style="stroke:#038048;stroke-width:1;"/><text fill="#000000" font-family="sans-serif" font-size="14" lengthAdjust="spacing" textLength="144.1084" x="209.83" y="145.6226">preferred_model: str</text><ellipse cx="200.83" cy="158.5728" fill="none" rx="3" ry="3" style="stroke:#038048;stroke-width:1;"/><text fill="#000000" font-family="sans-serif" font-size="14" lengthAdjust="spacing" textLength="147.0684" x="209.83" y="161.9195">created_at: datetime</text><ellipse cx="200.83" cy="174.8697" fill="none" rx="3" ry="3" style="stroke:#038048;stroke-width:1;"/><text fill="#000000" font-family="sans-serif" font-size="14" lengthAdjust="spacing" textLength="138.7217" x="209.83" y="178.2164">last_login: datetime</text><ellipse cx="200.83" cy="191.1666" fill="none" rx="3" ry="3" style="stroke:#038048;stroke-width:1;"/><text fill="#000000" font-family="sans-serif" font-size="14" lengthAdjust="spacing" textLength="111.9658" x="209.83" y="194.5132">total_videos: int</text><ellipse cx="200.83" cy="207.4634" fill="none" rx="3" ry="3" style="stroke:#038048;stroke-width:1;"/><text fill="#000000" font-family="sans-serif" font-size="14" lengthAdjust="spacing" textLength="121.7549" x="209.83" y="210.8101">account_type: str</text><ellipse cx="200.83" cy="223.7603" fill="none" rx="3" ry="3" style="stroke:#038048;stroke-width:1;"/><text fill="#000000" font-family="sans-serif" font-size="14" lengthAdjust="spacing" textLength="110.1201" x="209.83" y="227.107">is_verified: bool</text><line style="stroke:#181818;stroke-width:1;" x1="190.83" x2="439.9989" y1="234.4088" y2="234.4088"/><ellipse cx="200.83" cy="248.0572" fill="#84BE84" rx="3" ry="3" style="stroke:#038048;stroke-width:1;"/><text fill="#000000" font-family="sans-serif" font-size="14" lengthAdjust="spacing" textLength="205.7686" x="209.83" y="251.4039">authenticate(password): bool</text><ellipse cx="200.83" cy="264.3541" fill="#84BE84" rx="3" ry="3" style="stroke:#038048;stroke-width:1;"/><text fill="#000000" font-family="sans-serif" font-size="14" lengthAdjust="spacing" textLength="225.1689" x="209.83" y="267.7007">update_preferences(prefs): void</text><ellipse cx="200.83" cy="280.6509" fill="#84BE84" rx="3" ry="3" style="stroke:#038048;stroke-width:1;"/><text fill="#000000" font-family="sans-serif" font-size="14" lengthAdjust="spacing" textLength="203.9844" x="209.83" y="283.9976">get_chat_history(): List[Chat]</text></g><!--class Video--><g class="entity" data-entity="Video" data-source-line="18" data-uid="ent0003" id="entity_Video"><rect fill="#F1F1F1" height="308.75" rx="2.5" ry="2.5" style="stroke:#181818;stroke-width:0.5;" width="231.7686" x="493.53" y="7"/><ellipse cx="585.3982" cy="23" fill="#ADD1B2" rx="11" ry="11" style="stroke:#181818;stroke-width:1;"/><path d="M588.3669,28.6406 Q587.7888,28.9375 587.1482,29.0781 Q586.5075,29.2344 585.8044,29.2344 Q583.3044,29.2344 581.9763,27.5938 Q580.6638,25.9375 580.6638,22.8125 Q580.6638,19.6875 581.9763,18.0313 Q583.3044,16.375 585.8044,16.375 Q586.5075,16.375 587.1482,16.5313 Q587.8044,16.6875 588.3669,16.9844 L588.3669,19.7031 Q587.7419,19.125 587.1482,18.8594 Q586.5544,18.5781 585.9294,18.5781 Q584.5857,18.5781 583.8982,19.6563 Q583.2107,20.7188 583.2107,22.8125 Q583.2107,24.9063 583.8982,25.9844 Q584.5857,27.0469 585.9294,27.0469 Q586.5544,27.0469 587.1482,26.7813 Q587.7419,26.5 588.3669,25.9219 L588.3669,28.6406 Z " fill="#000000"/><text fill="#000000" font-family="sans-serif" font-size="14" lengthAdjust="spacing" textLength="39.5322" x="605.8982" y="27.8467">Video</text><line style="stroke:#181818;stroke-width:0.5;" x1="494.53" x2="724.2986" y1="39" y2="39"/><ellipse cx="504.53" cy="52.6484" fill="none" rx="3" ry="3" style="stroke:#038048;stroke-width:1;"/><text fill="#000000" font-family="sans-serif" font-size="14" lengthAdjust="spacing" textLength="40.4824" x="513.53" y="55.9951">id: str</text><ellipse cx="504.53" cy="68.9453" fill="none" rx="3" ry="3" style="stroke:#038048;stroke-width:1;"/><text fill="#000000" font-family="sans-serif" font-size="14" lengthAdjust="spacing" textLength="105.0684" x="513.53" y="72.292">youtube_id: str</text><ellipse cx="504.53" cy="85.2422" fill="none" rx="3" ry="3" style="stroke:#038048;stroke-width:1;"/><text fill="#000000" font-family="sans-serif" font-size="14" lengthAdjust="spacing" textLength="55.0771" x="513.53" y="88.5889">title: str</text><ellipse cx="504.53" cy="101.5391" fill="none" rx="3" ry="3" style="stroke:#038048;stroke-width:1;"/><text fill="#000000" font-family="sans-serif" font-size="14" lengthAdjust="spacing" textLength="124.2158" x="513.53" y="104.8857">thumbnail_url: str</text><ellipse cx="504.53" cy="117.8359" fill="none" rx="3" ry="3" style="stroke:#038048;stroke-width:1;"/><text fill="#000000" font-family="sans-serif" font-size="14" lengthAdjust="spacing" textLength="174.8633" x="513.53" y="121.1826">transcripts: Dict[str, List]</text><ellipse cx="504.53" cy="134.1328" fill="none" rx="3" ry="3" style="stroke:#038048;stroke-width:1;"/><text fill="#000000" font-family="sans-serif" font-size="14" lengthAdjust="spacing" textLength="149.1465" x="513.53" y="137.4795">default_language: str</text><ellipse cx="504.53" cy="150.4297" fill="none" rx="3" ry="3" style="stroke:#038048;stroke-width:1;"/><text fill="#000000" font-family="sans-serif" font-size="14" lengthAdjust="spacing" textLength="205.7686" x="513.53" y="153.7764">available_languages: List[str]</text><ellipse cx="504.53" cy="166.7266" fill="none" rx="3" ry="3" style="stroke:#038048;stroke-width:1;"/><text fill="#000000" font-family="sans-serif" font-size="14" lengthAdjust="spacing" textLength="70.7246" x="513.53" y="170.0732">status: str</text><ellipse cx="504.53" cy="183.0234" fill="none" rx="3" ry="3" style="stroke:#038048;stroke-width:1;"/><text fill="#000000" font-family="sans-serif" font-size="14" lengthAdjust="spacing" textLength="200.7988" x="513.53" y="186.3701">vector_ids: Dict[str, List[str]]</text><ellipse cx="504.53" cy="199.3203" fill="none" rx="3" ry="3" style="stroke:#038048;stroke-width:1;"/><text fill="#000000" font-family="sans-serif" font-size="14" lengthAdjust="spacing" textLength="147.0684" x="513.53" y="202.667">created_at: datetime</text><ellipse cx="504.53" cy="215.6172" fill="none" rx="3" ry="3" style="stroke:#038048;stroke-width:1;"/><text fill="#000000" font-family="sans-serif" font-size="14" lengthAdjust="spacing" textLength="150.5547" x="513.53" y="218.9639">duration_seconds: int</text><ellipse cx="504.53" cy="231.9141" fill="none" rx="3" ry="3" style="stroke:#038048;stroke-width:1;"/><text fill="#000000" font-family="sans-serif" font-size="14" lengthAdjust="spacing" textLength="89.7559" x="513.53" y="235.2607">uploader: str</text><line style="stroke:#181818;stroke-width:1;" x1="494.53" x2="724.2986" y1="242.5625" y2="242.5625"/><ellipse cx="504.53" cy="256.2109" fill="#84BE84" rx="3" ry="3" style="stroke:#038048;stroke-width:1;"/><text fill="#000000" font-family="sans-serif" font-size="14" lengthAdjust="spacing" textLength="174.4805" x="513.53" y="259.5576">extract_metadata(): void</text><ellipse cx="504.53" cy="272.5078" fill="#84BE84" rx="3" ry="3" style="stroke:#038048;stroke-width:1;"/><text fill="#000000" font-family="sans-serif" font-size="14" lengthAdjust="spacing" textLength="167.3232" x="513.53" y="275.8545">fetch_transcripts(): void</text><ellipse cx="504.53" cy="288.8047" fill="#84BE84" rx="3" ry="3" style="stroke:#038048;stroke-width:1;"/><text fill="#000000" font-family="sans-serif" font-size="14" lengthAdjust="spacing" textLength="175.1162" x="513.53" y="292.1514">generate_summary(): str</text><ellipse cx="504.53" cy="305.1016" fill="#84BE84" rx="3" ry="3" style="stroke:#038048;stroke-width:1;"/><text fill="#000000" font-family="sans-serif" font-size="14" lengthAdjust="spacing" textLength="187.9336" x="513.53" y="308.4482">create_embeddings(): void</text></g><!--class Chat--><g class="entity" data-entity="Chat" data-source-line="38" data-uid="ent0004" id="entity_Chat"><rect fill="#F1F1F1" height="210.9688" rx="2.5" ry="2.5" style="stroke:#181818;stroke-width:0.5;" width="234.9063" x="361.96" y="392.75"/><ellipse cx="458.8047" cy="408.75" fill="#ADD1B2" rx="11" ry="11" style="stroke:#181818;stroke-width:1;"/><path d="M461.7735,414.3906 Q461.1954,414.6875 460.5547,414.8281 Q459.9141,414.9844 459.211,414.9844 Q456.711,414.9844 455.3829,413.3438 Q454.0704,411.6875 454.0704,408.5625 Q454.0704,405.4375 455.3829,403.7813 Q456.711,402.125 459.211,402.125 Q459.9141,402.125 460.5547,402.2813 Q461.211,402.4375 461.7735,402.7344 L461.7735,405.4531 Q461.1485,404.875 460.5547,404.6094 Q459.961,404.3281 459.336,404.3281 Q457.9922,404.3281 457.3047,405.4063 Q456.6172,406.4688 456.6172,408.5625 Q456.6172,410.6563 457.3047,411.7344 Q457.9922,412.7969 459.336,412.7969 Q459.961,412.7969 460.5547,412.5313 Q461.1485,412.25 461.7735,411.6719 L461.7735,414.3906 Z " fill="#000000"/><text fill="#000000" font-family="sans-serif" font-size="14" lengthAdjust="spacing" textLength="32.7168" x="479.3047" y="413.5967">Chat</text><line style="stroke:#181818;stroke-width:0.5;" x1="362.96" x2="595.8663" y1="424.75" y2="424.75"/><ellipse cx="372.96" cy="438.3984" fill="none" rx="3" ry="3" style="stroke:#038048;stroke-width:1;"/><text fill="#000000" font-family="sans-serif" font-size="14" lengthAdjust="spacing" textLength="40.4824" x="381.96" y="441.7451">id: str</text><ellipse cx="372.96" cy="454.6953" fill="none" rx="3" ry="3" style="stroke:#038048;stroke-width:1;"/><text fill="#000000" font-family="sans-serif" font-size="14" lengthAdjust="spacing" textLength="78.0186" x="381.96" y="458.042">user_id: str</text><ellipse cx="372.96" cy="470.9922" fill="none" rx="3" ry="3" style="stroke:#038048;stroke-width:1;"/><text fill="#000000" font-family="sans-serif" font-size="14" lengthAdjust="spacing" textLength="85.7227" x="381.96" y="474.3389">video_id: str</text><ellipse cx="372.96" cy="487.2891" fill="none" rx="3" ry="3" style="stroke:#038048;stroke-width:1;"/><text fill="#000000" font-family="sans-serif" font-size="14" lengthAdjust="spacing" textLength="176.1348" x="381.96" y="490.6357">messages: List[Message]</text><ellipse cx="372.96" cy="503.5859" fill="none" rx="3" ry="3" style="stroke:#038048;stroke-width:1;"/><text fill="#000000" font-family="sans-serif" font-size="14" lengthAdjust="spacing" textLength="147.0684" x="381.96" y="506.9326">created_at: datetime</text><ellipse cx="372.96" cy="519.8828" fill="none" rx="3" ry="3" style="stroke:#038048;stroke-width:1;"/><text fill="#000000" font-family="sans-serif" font-size="14" lengthAdjust="spacing" textLength="151.6484" x="381.96" y="523.2295">updated_at: datetime</text><ellipse cx="372.96" cy="536.1797" fill="none" rx="3" ry="3" style="stroke:#038048;stroke-width:1;"/><text fill="#000000" font-family="sans-serif" font-size="14" lengthAdjust="spacing" textLength="99.8115" x="381.96" y="539.5264">is_active: bool</text><line style="stroke:#181818;stroke-width:1;" x1="362.96" x2="595.8663" y1="546.8281" y2="546.8281"/><ellipse cx="372.96" cy="560.4766" fill="#84BE84" rx="3" ry="3" style="stroke:#038048;stroke-width:1;"/><text fill="#000000" font-family="sans-serif" font-size="14" lengthAdjust="spacing" textLength="208.9063" x="381.96" y="563.8232">add_message(message): void</text><ellipse cx="372.96" cy="576.7734" fill="#84BE84" rx="3" ry="3" style="stroke:#038048;stroke-width:1;"/><text fill="#000000" font-family="sans-serif" font-size="14" lengthAdjust="spacing" textLength="121.6318" x="381.96" y="580.1201">get_context(): str</text><ellipse cx="372.96" cy="593.0703" fill="#84BE84" rx="3" ry="3" style="stroke:#038048;stroke-width:1;"/><text fill="#000000" font-family="sans-serif" font-size="14" lengthAdjust="spacing" textLength="139.0498" x="381.96" y="596.417">archive_chat(): void</text></g><!--class Message--><g class="entity" data-entity="Message" data-source-line="52" data-uid="ent0005" id="entity_Message"><rect fill="#F1F1F1" height="178.375" rx="2.5" ry="2.5" style="stroke:#181818;stroke-width:0.5;" width="192.8105" x="383.01" y="680.71"/><ellipse cx="444.4856" cy="696.71" fill="#ADD1B2" rx="11" ry="11" style="stroke:#181818;stroke-width:1;"/><path d="M447.4543,702.3506 Q446.8762,702.6475 446.2356,702.7881 Q445.595,702.9444 444.8918,702.9444 Q442.3918,702.9444 441.0637,701.3038 Q439.7512,699.6475 439.7512,696.5225 Q439.7512,693.3975 441.0637,691.7413 Q442.3918,690.085 444.8918,690.085 Q445.595,690.085 446.2356,690.2413 Q446.8918,690.3975 447.4543,690.6944 L447.4543,693.4131 Q446.8293,692.835 446.2356,692.5694 Q445.6418,692.2881 445.0168,692.2881 Q443.6731,692.2881 442.9856,693.3663 Q442.2981,694.4288 442.2981,696.5225 Q442.2981,698.6163 442.9856,699.6944 Q443.6731,700.7569 445.0168,700.7569 Q445.6418,700.7569 446.2356,700.4913 Q446.8293,700.21 447.4543,699.6319 L447.4543,702.3506 Z " fill="#000000"/><text fill="#000000" font-family="sans-serif" font-size="14" lengthAdjust="spacing" textLength="61.3594" x="464.9856" y="701.5567">Message</text><line style="stroke:#181818;stroke-width:0.5;" x1="384.01" x2="574.8205" y1="712.71" y2="712.71"/><ellipse cx="394.01" cy="726.3584" fill="none" rx="3" ry="3" style="stroke:#038048;stroke-width:1;"/><text fill="#000000" font-family="sans-serif" font-size="14" lengthAdjust="spacing" textLength="40.4824" x="403.01" y="729.7051">id: str</text><ellipse cx="394.01" cy="742.6553" fill="none" rx="3" ry="3" style="stroke:#038048;stroke-width:1;"/><text fill="#000000" font-family="sans-serif" font-size="14" lengthAdjust="spacing" textLength="78.1211" x="403.01" y="746.002">chat_id: str</text><ellipse cx="394.01" cy="758.9522" fill="none" rx="3" ry="3" style="stroke:#038048;stroke-width:1;"/><text fill="#000000" font-family="sans-serif" font-size="14" lengthAdjust="spacing" textLength="81.3066" x="403.01" y="762.2989">content: str</text><ellipse cx="394.01" cy="775.2491" fill="none" rx="3" ry="3" style="stroke:#038048;stroke-width:1;"/><text fill="#000000" font-family="sans-serif" font-size="14" lengthAdjust="spacing" textLength="75.7422" x="403.01" y="778.5957">sender: str</text><ellipse cx="394.01" cy="791.5459" fill="none" rx="3" ry="3" style="stroke:#038048;stroke-width:1;"/><text fill="#000000" font-family="sans-serif" font-size="14" lengthAdjust="spacing" textLength="147.8818" x="403.01" y="794.8926">timestamp: datetime</text><ellipse cx="394.01" cy="807.8428" fill="none" rx="3" ry="3" style="stroke:#038048;stroke-width:1;"/><text fill="#000000" font-family="sans-serif" font-size="14" lengthAdjust="spacing" textLength="128.8984" x="403.01" y="811.1895">message_type: str</text><line style="stroke:#181818;stroke-width:1;" x1="384.01" x2="574.8205" y1="818.4913" y2="818.4913"/><ellipse cx="394.01" cy="832.1397" fill="#84BE84" rx="3" ry="3" style="stroke:#038048;stroke-width:1;"/><text fill="#000000" font-family="sans-serif" font-size="14" lengthAdjust="spacing" textLength="146.1865" x="403.01" y="835.4864">format_content(): str</text><ellipse cx="394.01" cy="848.4366" fill="#84BE84" rx="3" ry="3" style="stroke:#038048;stroke-width:1;"/><text fill="#000000" font-family="sans-serif" font-size="14" lengthAdjust="spacing" textLength="166.8105" x="403.01" y="851.7832">validate_content(): bool</text></g><!--class VideoService--><g class="entity" data-entity="VideoService" data-source-line="64" data-uid="ent0006" id="entity_VideoService"><rect fill="#F1F1F1" height="129.4844" rx="2.5" ry="2.5" style="stroke:#181818;stroke-width:0.5;" width="313.3076" x="842.76" y="433.49"/><ellipse cx="949.5271" cy="449.49" fill="#ADD1B2" rx="11" ry="11" style="stroke:#181818;stroke-width:1;"/><path d="M952.4958,455.1306 Q951.9177,455.4275 951.2771,455.5681 Q950.6365,455.7244 949.9333,455.7244 Q947.4333,455.7244 946.1052,454.0838 Q944.7927,452.4275 944.7927,449.3025 Q944.7927,446.1775 946.1052,444.5213 Q947.4333,442.865 949.9333,442.865 Q950.6365,442.865 951.2771,443.0213 Q951.9333,443.1775 952.4958,443.4744 L952.4958,446.1931 Q951.8708,445.615 951.2771,445.3494 Q950.6833,445.0681 950.0583,445.0681 Q948.7146,445.0681 948.0271,446.1463 Q947.3396,447.2088 947.3396,449.3025 Q947.3396,451.3963 948.0271,452.4744 Q948.7146,453.5369 950.0583,453.5369 Q950.6833,453.5369 951.2771,453.2713 Q951.8708,452.99 952.4958,452.4119 L952.4958,455.1306 Z " fill="#000000"/><text fill="#000000" font-family="sans-serif" font-size="14" lengthAdjust="spacing" textLength="91.2734" x="970.0271" y="454.3367">VideoService</text><line style="stroke:#181818;stroke-width:0.5;" x1="843.76" x2="1155.0676" y1="465.49" y2="465.49"/><ellipse cx="853.76" cy="479.1384" fill="none" rx="3" ry="3" style="stroke:#038048;stroke-width:1;"/><text fill="#000000" font-family="sans-serif" font-size="14" lengthAdjust="spacing" textLength="287.3076" x="862.76" y="482.4851">embedding_store: VideoEmbeddingStore</text><line style="stroke:#181818;stroke-width:1;" x1="843.76" x2="1155.0676" y1="489.7869" y2="489.7869"/><ellipse cx="853.76" cy="503.4353" fill="#84BE84" rx="3" ry="3" style="stroke:#038048;stroke-width:1;"/><text fill="#000000" font-family="sans-serif" font-size="14" lengthAdjust="spacing" textLength="177.4883" x="862.76" y="506.782">process_video(url): Video</text><ellipse cx="853.76" cy="519.7322" fill="#84BE84" rx="3" ry="3" style="stroke:#038048;stroke-width:1;"/><text fill="#000000" font-family="sans-serif" font-size="14" lengthAdjust="spacing" textLength="253.7158" x="862.76" y="523.0789">extract_video_info(youtube_id): Dict</text><ellipse cx="853.76" cy="536.0291" fill="#84BE84" rx="3" ry="3" style="stroke:#038048;stroke-width:1;"/><text fill="#000000" font-family="sans-serif" font-size="14" lengthAdjust="spacing" textLength="242.915" x="862.76" y="539.3757">fetch_transcripts(youtube_id): Dict</text><ellipse cx="853.76" cy="552.3259" fill="#84BE84" rx="3" ry="3" style="stroke:#038048;stroke-width:1;"/><text fill="#000000" font-family="sans-serif" font-size="14" lengthAdjust="spacing" textLength="213.3564" x="862.76" y="555.6726">generate_summary(video): str</text></g><!--class RAGService--><g class="entity" data-entity="RAGService" data-source-line="73" data-uid="ent0007" id="entity_RAGService"><rect fill="#F1F1F1" height="129.4844" rx="2.5" ry="2.5" style="stroke:#181818;stroke-width:0.5;" width="340.8291" x="7" y="705.16"/><ellipse cx="132.2173" cy="721.16" fill="#ADD1B2" rx="11" ry="11" style="stroke:#181818;stroke-width:1;"/><path d="M135.186,726.8006 Q134.6079,727.0975 133.9673,727.2381 Q133.3267,727.3944 132.6235,727.3944 Q130.1235,727.3944 128.7954,725.7538 Q127.4829,724.0975 127.4829,720.9725 Q127.4829,717.8475 128.7954,716.1913 Q130.1235,714.535 132.6235,714.535 Q133.3267,714.535 133.9673,714.6913 Q134.6235,714.8475 135.186,715.1444 L135.186,717.8631 Q134.561,717.285 133.9673,717.0194 Q133.3735,716.7381 132.7485,716.7381 Q131.4048,716.7381 130.7173,717.8163 Q130.0298,718.8788 130.0298,720.9725 Q130.0298,723.0663 130.7173,724.1444 Q131.4048,725.2069 132.7485,725.2069 Q133.3735,725.2069 133.9673,724.9413 Q134.561,724.66 135.186,724.0819 L135.186,726.8006 Z " fill="#000000"/><text fill="#000000" font-family="sans-serif" font-size="14" lengthAdjust="spacing" textLength="81.8945" x="152.7173" y="726.0067">RAGService</text><line style="stroke:#181818;stroke-width:0.5;" x1="8" x2="346.8291" y1="737.16" y2="737.16"/><ellipse cx="18" cy="750.8084" fill="none" rx="3" ry="3" style="stroke:#038048;stroke-width:1;"/><text fill="#000000" font-family="sans-serif" font-size="14" lengthAdjust="spacing" textLength="203.9365" x="27" y="754.1551">llm: ChatGoogleGenerativeAI</text><ellipse cx="18" cy="767.1053" fill="none" rx="3" ry="3" style="stroke:#038048;stroke-width:1;"/><text fill="#000000" font-family="sans-serif" font-size="14" lengthAdjust="spacing" textLength="128.9258" x="27" y="770.452">temperature: float</text><line style="stroke:#181818;stroke-width:1;" x1="8" x2="346.8291" y1="777.7538" y2="777.7538"/><ellipse cx="18" cy="791.4022" fill="#84BE84" rx="3" ry="3" style="stroke:#038048;stroke-width:1;"/><text fill="#000000" font-family="sans-serif" font-size="14" lengthAdjust="spacing" textLength="257.2432" x="27" y="794.7489">build_chain(retriever, history): Chain</text><ellipse cx="18" cy="807.6991" fill="#84BE84" rx="3" ry="3" style="stroke:#038048;stroke-width:1;"/><text fill="#000000" font-family="sans-serif" font-size="14" lengthAdjust="spacing" textLength="275.2764" x="27" y="811.0457">generate_response(query, context): str</text><ellipse cx="18" cy="823.9959" fill="#84BE84" rx="3" ry="3" style="stroke:#038048;stroke-width:1;"/><text fill="#000000" font-family="sans-serif" font-size="14" lengthAdjust="spacing" textLength="314.8291" x="27" y="827.3426">process_chat(video_id, question, history): str</text></g><!--class AuthService--><g class="entity" data-entity="AuthService" data-source-line="82" data-uid="ent0008" id="entity_AuthService"><rect fill="#F1F1F1" height="145.7813" rx="2.5" ry="2.5" style="stroke:#181818;stroke-width:0.5;" width="318.8174" x="8.01" y="425.34"/><ellipse cx="120.8918" cy="441.34" fill="#ADD1B2" rx="11" ry="11" style="stroke:#181818;stroke-width:1;"/><path d="M123.8606,446.9806 Q123.2825,447.2775 122.6418,447.4181 Q122.0012,447.5744 121.2981,447.5744 Q118.7981,447.5744 117.47,445.9338 Q116.1575,444.2775 116.1575,441.1525 Q116.1575,438.0275 117.47,436.3713 Q118.7981,434.715 121.2981,434.715 Q122.0012,434.715 122.6418,434.8713 Q123.2981,435.0275 123.8606,435.3244 L123.8606,438.0431 Q123.2356,437.465 122.6418,437.1994 Q122.0481,436.9181 121.4231,436.9181 Q120.0793,436.9181 119.3918,437.9963 Q118.7043,439.0588 118.7043,441.1525 Q118.7043,443.2463 119.3918,444.3244 Q120.0793,445.3869 121.4231,445.3869 Q122.0481,445.3869 122.6418,445.1213 Q123.2356,444.84 123.8606,444.2619 L123.8606,446.9806 Z " fill="#000000"/><text fill="#000000" font-family="sans-serif" font-size="14" lengthAdjust="spacing" textLength="84.5537" x="141.3918" y="446.1867">AuthService</text><line style="stroke:#181818;stroke-width:0.5;" x1="9.01" x2="325.8274" y1="457.34" y2="457.34"/><ellipse cx="19.01" cy="470.9884" fill="none" rx="3" ry="3" style="stroke:#038048;stroke-width:1;"/><text fill="#000000" font-family="sans-serif" font-size="14" lengthAdjust="spacing" textLength="103.1748" x="28.01" y="474.3351">secret_key: str</text><ellipse cx="19.01" cy="487.2853" fill="none" rx="3" ry="3" style="stroke:#038048;stroke-width:1;"/><text fill="#000000" font-family="sans-serif" font-size="14" lengthAdjust="spacing" textLength="95.2725" x="28.01" y="490.632">algorithm: str</text><line style="stroke:#181818;stroke-width:1;" x1="9.01" x2="325.8274" y1="497.9338" y2="497.9338"/><ellipse cx="19.01" cy="511.5822" fill="#84BE84" rx="3" ry="3" style="stroke:#038048;stroke-width:1;"/><text fill="#000000" font-family="sans-serif" font-size="14" lengthAdjust="spacing" textLength="248.5068" x="28.01" y="514.9289">create_user(email, password): User</text><ellipse cx="19.01" cy="527.8791" fill="#84BE84" rx="3" ry="3" style="stroke:#038048;stroke-width:1;"/><text fill="#000000" font-family="sans-serif" font-size="14" lengthAdjust="spacing" textLength="292.8174" x="28.01" y="531.2257">authenticate_user(email, password): User</text><ellipse cx="19.01" cy="544.1759" fill="#84BE84" rx="3" ry="3" style="stroke:#038048;stroke-width:1;"/><text fill="#000000" font-family="sans-serif" font-size="14" lengthAdjust="spacing" textLength="160.5625" x="28.01" y="547.5226">create_token(user): str</text><ellipse cx="19.01" cy="560.4728" fill="#84BE84" rx="3" ry="3" style="stroke:#038048;stroke-width:1;"/><text fill="#000000" font-family="sans-serif" font-size="14" lengthAdjust="spacing" textLength="178.0557" x="28.01" y="563.8195">verify_token(token): User</text></g><!--class VideoEmbeddingStore--><g class="entity" data-entity="VideoEmbeddingStore" data-source-line="92" data-uid="ent0009" id="entity_VideoEmbeddingStore"><rect fill="#F1F1F1" height="129.4844" rx="2.5" ry="2.5" style="stroke:#181818;stroke-width:0.5;" width="392.2695" x="1010.28" y="705.16"/><ellipse cx="1124.0403" cy="721.16" fill="#ADD1B2" rx="11" ry="11" style="stroke:#181818;stroke-width:1;"/><path d="M1127.009,726.8006 Q1126.4309,727.0975 1125.7903,727.2381 Q1125.1496,727.3944 1124.4465,727.3944 Q1121.9465,727.3944 1120.6184,725.7538 Q1119.3059,724.0975 1119.3059,720.9725 Q1119.3059,717.8475 1120.6184,716.1913 Q1121.9465,714.535 1124.4465,714.535 Q1125.1496,714.535 1125.7903,714.6913 Q1126.4465,714.8475 1127.009,715.1444 L1127.009,717.8631 Q1126.384,717.285 1125.7903,717.0194 Q1125.1965,716.7381 1124.5715,716.7381 Q1123.2278,716.7381 1122.5403,717.8163 Q1121.8528,718.8788 1121.8528,720.9725 Q1121.8528,723.0663 1122.5403,724.1444 Q1123.2278,725.2069 1124.5715,725.2069 Q1125.1965,725.2069 1125.7903,724.9413 Q1126.384,724.66 1127.009,724.0819 L1127.009,726.8006 Z " fill="#000000"/><text fill="#000000" font-family="sans-serif" font-size="14" lengthAdjust="spacing" textLength="156.249" x="1144.5403" y="726.0067">VideoEmbeddingStore</text><line style="stroke:#181818;stroke-width:0.5;" x1="1011.28" x2="1401.5495" y1="737.16" y2="737.16"/><ellipse cx="1021.28" cy="750.8084" fill="none" rx="3" ry="3" style="stroke:#038048;stroke-width:1;"/><text fill="#000000" font-family="sans-serif" font-size="14" lengthAdjust="spacing" textLength="366.2695" x="1030.28" y="754.1551">embedding_model: GoogleGenerativeAIEmbeddings</text><ellipse cx="1021.28" cy="767.1053" fill="none" rx="3" ry="3" style="stroke:#038048;stroke-width:1;"/><text fill="#000000" font-family="sans-serif" font-size="14" lengthAdjust="spacing" textLength="79.9326" x="1030.28" y="770.452">vs: Chroma</text><line style="stroke:#181818;stroke-width:1;" x1="1011.28" x2="1401.5495" y1="777.7538" y2="777.7538"/><ellipse cx="1021.28" cy="791.4022" fill="#84BE84" rx="3" ry="3" style="stroke:#038048;stroke-width:1;"/><text fill="#000000" font-family="sans-serif" font-size="14" lengthAdjust="spacing" textLength="315.8613" x="1030.28" y="794.7489">add_video_embeddings(video_data): List[str]</text><ellipse cx="1021.28" cy="807.6991" fill="#84BE84" rx="3" ry="3" style="stroke:#038048;stroke-width:1;"/><text fill="#000000" font-family="sans-serif" font-size="14" lengthAdjust="spacing" textLength="336.0957" x="1030.28" y="811.0457">search_similar(query, video_id): List[Document]</text><ellipse cx="1021.28" cy="823.9959" fill="#84BE84" rx="3" ry="3" style="stroke:#038048;stroke-width:1;"/><text fill="#000000" font-family="sans-serif" font-size="14" lengthAdjust="spacing" textLength="245.5879" x="1030.28" y="827.3426">delete_embeddings(video_id): bool</text></g><!--class YouTubeInfoExtractor--><g class="entity" data-entity="YouTubeInfoExtractor" data-source-line="101" data-uid="ent0010" id="entity_YouTubeInfoExtractor"><rect fill="#F1F1F1" height="96.8906" rx="2.5" ry="2.5" style="stroke:#181818;stroke-width:0.5;" width="183.874" x="1437.48" y="721.46"/><ellipse cx="1452.48" cy="737.46" fill="#ADD1B2" rx="11" ry="11" style="stroke:#181818;stroke-width:1;"/><path d="M1455.4488,743.1006 Q1454.8706,743.3975 1454.23,743.5381 Q1453.5894,743.6944 1452.8863,743.6944 Q1450.3863,743.6944 1449.0581,742.0538 Q1447.7456,740.3975 1447.7456,737.2725 Q1447.7456,734.1475 1449.0581,732.4913 Q1450.3863,730.835 1452.8863,730.835 Q1453.5894,730.835 1454.23,730.9913 Q1454.8863,731.1475 1455.4488,731.4444 L1455.4488,734.1631 Q1454.8238,733.585 1454.23,733.3194 Q1453.6363,733.0381 1453.0113,733.0381 Q1451.6675,733.0381 1450.98,734.1163 Q1450.2925,735.1788 1450.2925,737.2725 Q1450.2925,739.3663 1450.98,740.4444 Q1451.6675,741.5069 1453.0113,741.5069 Q1453.6363,741.5069 1454.23,741.2413 Q1454.8238,740.96 1455.4488,740.3819 L1455.4488,743.1006 Z " fill="#000000"/><text fill="#000000" font-family="sans-serif" font-size="14" lengthAdjust="spacing" textLength="151.874" x="1466.48" y="742.3067">YouTubeInfoExtractor</text><line style="stroke:#181818;stroke-width:0.5;" x1="1438.48" x2="1620.354" y1="753.46" y2="753.46"/><line style="stroke:#181818;stroke-width:1;" x1="1438.48" x2="1620.354" y1="761.46" y2="761.46"/><ellipse cx="1448.48" cy="775.1084" fill="#84BE84" rx="3" ry="3" style="stroke:#038048;stroke-width:1;"/><text fill="#000000" font-family="sans-serif" font-size="14" lengthAdjust="spacing" textLength="149.6318" x="1457.48" y="778.4551">extract_info(url): Dict</text><ellipse cx="1448.48" cy="791.4053" fill="#84BE84" rx="3" ry="3" style="stroke:#038048;stroke-width:1;"/><text fill="#000000" font-family="sans-serif" font-size="14" lengthAdjust="spacing" textLength="145.1543" x="1457.48" y="794.752">get_video_id(url): str</text><ellipse cx="1448.48" cy="807.7022" fill="#84BE84" rx="3" ry="3" style="stroke:#038048;stroke-width:1;"/><text fill="#000000" font-family="sans-serif" font-size="14" lengthAdjust="spacing" textLength="150.2471" x="1457.48" y="811.0489">validate_url(url): bool</text></g><!--class YouTubeTranscriber--><g class="entity" data-entity="YouTubeTranscriber" data-source-line="108" data-uid="ent0011" id="entity_YouTubeTranscriber"><rect fill="#F1F1F1" height="96.8906" rx="2.5" ry="2.5" style="stroke:#181818;stroke-width:0.5;" width="364.4883" x="611.17" y="721.46"/><ellipse cx="718.8804" cy="737.46" fill="#ADD1B2" rx="11" ry="11" style="stroke:#181818;stroke-width:1;"/><path d="M721.8492,743.1006 Q721.2711,743.3975 720.6304,743.5381 Q719.9898,743.6944 719.2867,743.6944 Q716.7867,743.6944 715.4586,742.0538 Q714.1461,740.3975 714.1461,737.2725 Q714.1461,734.1475 715.4586,732.4913 Q716.7867,730.835 719.2867,730.835 Q719.9898,730.835 720.6304,730.9913 Q721.2867,731.1475 721.8492,731.4444 L721.8492,734.1631 Q721.2242,733.585 720.6304,733.3194 Q720.0367,733.0381 719.4117,733.0381 Q718.0679,733.0381 717.3804,734.1163 Q716.6929,735.1788 716.6929,737.2725 Q716.6929,739.3663 717.3804,740.4444 Q718.0679,741.5069 719.4117,741.5069 Q720.0367,741.5069 720.6304,741.2413 Q721.2242,740.96 721.8492,740.3819 L721.8492,743.1006 Z " fill="#000000"/><text fill="#000000" font-family="sans-serif" font-size="14" lengthAdjust="spacing" textLength="140.5674" x="739.3804" y="742.3067">YouTubeTranscriber</text><line style="stroke:#181818;stroke-width:0.5;" x1="612.17" x2="974.6583" y1="753.46" y2="753.46"/><line style="stroke:#181818;stroke-width:1;" x1="612.17" x2="974.6583" y1="761.46" y2="761.46"/><ellipse cx="622.17" cy="775.1084" fill="#84BE84" rx="3" ry="3" style="stroke:#038048;stroke-width:1;"/><text fill="#000000" font-family="sans-serif" font-size="14" lengthAdjust="spacing" textLength="285.0381" x="631.17" y="778.4551">get_transcript(video_id, languages): Dict</text><ellipse cx="622.17" cy="791.4053" fill="#84BE84" rx="3" ry="3" style="stroke:#038048;stroke-width:1;"/><text fill="#000000" font-family="sans-serif" font-size="14" lengthAdjust="spacing" textLength="304.6982" x="631.17" y="794.752">get_available_languages(video_id): List[str]</text><ellipse cx="622.17" cy="807.7022" fill="#84BE84" rx="3" ry="3" style="stroke:#038048;stroke-width:1;"/><text fill="#000000" font-family="sans-serif" font-size="14" lengthAdjust="spacing" textLength="338.4883" x="631.17" y="811.0489">translate_transcript(transcript, target_lang): List</text></g><!--class Chroma--><g class="entity" data-entity="Chroma" data-source-line="125" data-uid="ent0021" id="entity_Chroma"><rect fill="#F1F1F1" height="48" rx="2.5" ry="2.5" style="stroke:#181818;stroke-width:0.5;" width="87.1865" x="1162.82" y="936.09"/><ellipse cx="1177.82" cy="952.09" fill="#ADD1B2" rx="11" ry="11" style="stroke:#181818;stroke-width:1;"/><path d="M1180.7888,957.7306 Q1180.2106,958.0275 1179.57,958.1681 Q1178.9294,958.3244 1178.2263,958.3244 Q1175.7263,958.3244 1174.3981,956.6838 Q1173.0856,955.0275 1173.0856,951.9025 Q1173.0856,948.7775 1174.3981,947.1213 Q1175.7263,945.465 1178.2263,945.465 Q1178.9294,945.465 1179.57,945.6213 Q1180.2263,945.7775 1180.7888,946.0744 L1180.7888,948.7931 Q1180.1638,948.215 1179.57,947.9494 Q1178.9763,947.6681 1178.3513,947.6681 Q1177.0075,947.6681 1176.32,948.7463 Q1175.6325,949.8088 1175.6325,951.9025 Q1175.6325,953.9963 1176.32,955.0744 Q1177.0075,956.1369 1178.3513,956.1369 Q1178.9763,956.1369 1179.57,955.8713 Q1180.1638,955.59 1180.7888,955.0119 L1180.7888,957.7306 Z " fill="#000000"/><text fill="#000000" font-family="sans-serif" font-size="14" lengthAdjust="spacing" textLength="55.1865" x="1191.82" y="956.9367">Chroma</text><line style="stroke:#181818;stroke-width:0.5;" x1="1163.82" x2="1249.0065" y1="968.09" y2="968.09"/><line style="stroke:#181818;stroke-width:0.5;" x1="1163.82" x2="1249.0065" y1="976.09" y2="976.09"/></g><!--link User to Chat--><g class="link" data-entity-1="User" data-entity-2="Chat" data-source-line="116" data-uid="lnk12" id="link_User_Chat"><path codeLine="116" d="M382.1074,298.5452 C398.4774,331.9852 404.4816,344.2352 420.1716,376.2652" fill="none" id="User-Chat" style="stroke:#181818;stroke-width:1;"/><line style="stroke:#181818;stroke-width:1;" x1="376.7561" x2="383.9413" y1="296.7113" y2="293.1939"/><line style="stroke:#181818;stroke-width:1;" x1="378.0751" x2="385.2604" y1="299.4058" y2="295.8884"/><line style="stroke:#181818;stroke-width:1;" x1="382.1074" x2="378.59" y1="298.5452" y2="291.36"/><line style="stroke:#181818;stroke-width:1;" x1="424.5707" x2="433.4783" y1="385.2457" y2="389.7905"/><line style="stroke:#181818;stroke-width:1;" x1="424.5707" x2="422.7017" y1="385.2457" y2="395.0695"/><line style="stroke:#181818;stroke-width:1;" x1="424.5707" x2="428.09" y1="385.2457" y2="392.43"/><ellipse cx="421.9313" cy="379.8574" fill="none" rx="4" ry="4" style="stroke:#181818;stroke-width:1;"/><text fill="#000000" font-family="sans-serif" font-size="13" lengthAdjust="spacing" textLength="63.6733" x="413.41" y="358.8169">has many</text></g><!--link Video to Chat--><g class="link" data-entity-1="Video" data-entity-2="Chat" data-source-line="117" data-uid="lnk13" id="link_Video_Chat"><path codeLine="117" d="M546.8453,323.5379 C536.8353,349.3279 536.0697,351.3222 526.6697,375.5122" fill="none" id="Video-Chat" style="stroke:#181818;stroke-width:1;"/><line style="stroke:#181818;stroke-width:1;" x1="544.5637" x2="552.0216" y1="318.3616" y2="321.2563"/><line style="stroke:#181818;stroke-width:1;" x1="543.4782" x2="550.9361" y1="321.1584" y2="324.053"/><line style="stroke:#181818;stroke-width:1;" x1="546.8453" x2="549.74" y1="323.5379" y2="316.08"/><line style="stroke:#181818;stroke-width:1;" x1="523.0476" x2="525.7426" y1="384.8332" y2="394.4632"/><line style="stroke:#181818;stroke-width:1;" x1="523.0476" x2="514.5574" y1="384.8332" y2="390.1168"/><line style="stroke:#181818;stroke-width:1;" x1="523.0476" x2="520.15" y1="384.8332" y2="392.29"/><ellipse cx="525.2209" cy="379.2406" fill="none" rx="4" ry="4" style="stroke:#181818;stroke-width:1;"/><text fill="#000000" font-family="sans-serif" font-size="13" lengthAdjust="spacing" textLength="86.8804" x="538.41" y="358.8169">referenced in</text></g><!--link Chat to Message--><g class="link" data-entity-1="Chat" data-entity-2="Message" data-source-line="118" data-uid="lnk14" id="link_Chat_Message"><path codeLine="118" d="M479.41,611.88 C479.41,637.2 479.41,638.01 479.41,662.5" fill="none" id="Chat-Message" style="stroke:#181818;stroke-width:1;"/><line style="stroke:#181818;stroke-width:1;" x1="475.41" x2="483.41" y1="607.88" y2="607.88"/><line style="stroke:#181818;stroke-width:1;" x1="475.41" x2="483.41" y1="610.88" y2="610.88"/><line style="stroke:#181818;stroke-width:1;" x1="479.41" x2="479.41" y1="611.88" y2="603.88"/><line style="stroke:#181818;stroke-width:1;" x1="479.41" x2="485.41" y1="672.5" y2="680.5"/><line style="stroke:#181818;stroke-width:1;" x1="479.41" x2="473.41" y1="672.5" y2="680.5"/><line style="stroke:#181818;stroke-width:1;" x1="479.41" x2="479.41" y1="672.5" y2="680.5"/><ellipse cx="479.41" cy="666.5" fill="none" rx="4" ry="4" style="stroke:#181818;stroke-width:1;"/><text fill="#000000" font-family="sans-serif" font-size="13" lengthAdjust="spacing" textLength="55.0278" x="480.41" y="646.7769">contains</text></g><!--link User to AuthService--><g class="link" data-entity-1="User" data-entity-2="AuthService" data-source-line="119" data-uid="lnk15" id="link_User_AuthService"><path codeLine="119" d="M251.1305,307.8224 C231.0905,353.1424 219.8252,378.6633 202.5852,417.6533" fill="none" id="User-AuthService" style="stroke:#181818;stroke-width:1;"/><line style="stroke:#181818;stroke-width:1;" x1="255.1747" x2="252.9225" y1="298.6766" y2="288.9335"/><line style="stroke:#181818;stroke-width:1;" x1="255.1747" x2="263.8975" y1="298.6766" y2="293.7865"/><line style="stroke:#181818;stroke-width:1;" x1="255.1747" x2="258.41" y1="298.6766" y2="291.36"/><ellipse cx="252.7482" cy="304.1641" fill="none" rx="4" ry="4" style="stroke:#181818;stroke-width:1;"/><line style="stroke:#181818;stroke-width:1;" x1="204.6259" x2="197.3093" y1="422.9293" y2="419.6941"/><line style="stroke:#181818;stroke-width:1;" x1="205.8391" x2="198.5224" y1="420.1855" y2="416.9503"/><line style="stroke:#181818;stroke-width:1;" x1="202.5852" x2="199.35" y1="417.6533" y2="424.97"/><text fill="#000000" font-family="sans-serif" font-size="13" lengthAdjust="spacing" textLength="111.0269" x="234.41" y="358.8169">authenticated by</text></g><!--link Video to VideoService--><g class="link" data-entity-1="Video" data-entity-2="VideoService" data-source-line="120" data-uid="lnk16" id="link_Video_VideoService"><path codeLine="120" d="M739.2958,273.8868 C803.7158,329.2068 862.2204,379.4284 918.5304,427.7784" fill="none" id="Video-VideoService" style="stroke:#181818;stroke-width:1;"/><line style="stroke:#181818;stroke-width:1;" x1="731.7093" x2="721.7311" y1="267.3719" y2="266.7119"/><line style="stroke:#181818;stroke-width:1;" x1="731.7093" x2="729.5489" y1="267.3719" y2="257.6081"/><line style="stroke:#181818;stroke-width:1;" x1="731.7093" x2="725.64" y1="267.3719" y2="262.16"/><ellipse cx="736.2612" cy="271.2809" fill="none" rx="4" ry="4" style="stroke:#181818;stroke-width:1;"/><line style="stroke:#181818;stroke-width:1;" x1="924.171" x2="918.9594" y1="427.3494" y2="433.419"/><line style="stroke:#181818;stroke-width:1;" x1="921.8949" x2="916.6834" y1="425.3951" y2="431.4647"/><line style="stroke:#181818;stroke-width:1;" x1="918.5304" x2="924.6" y1="427.7784" y2="432.99"/><text fill="#000000" font-family="sans-serif" font-size="13" lengthAdjust="spacing" textLength="86.5693" x="839.41" y="358.8169">processed by</text></g><!--link Chat to RAGService--><g class="link" data-entity-1="Chat" data-entity-2="RAGService" data-source-line="121" data-uid="lnk17" id="link_Chat_RAGService"><path codeLine="121" d="M347.8656,602.8194 C331.0656,616.7294 328.06,619.66 312.41,633.71 C287.5,656.11 266.8483,676.1749 244.1683,699.1649" fill="none" id="Chat-RAGService" style="stroke:#181818;stroke-width:1;"/><line style="stroke:#181818;stroke-width:1;" x1="355.568" x2="357.9035" y1="596.442" y2="586.7185"/><line style="stroke:#181818;stroke-width:1;" x1="355.568" x2="365.5565" y1="596.442" y2="595.9615"/><line style="stroke:#181818;stroke-width:1;" x1="355.568" x2="361.73" y1="596.442" y2="591.34"/><ellipse cx="350.9465" cy="600.2684" fill="none" rx="4" ry="4" style="stroke:#181818;stroke-width:1;"/><line style="stroke:#181818;stroke-width:1;" x1="244.2067" x2="238.5116" y1="704.8216" y2="699.2033"/><line style="stroke:#181818;stroke-width:1;" x1="246.3136" x2="240.6185" y1="702.6859" y2="697.0676"/><line style="stroke:#181818;stroke-width:1;" x1="244.1683" x2="238.55" y1="699.1649" y2="704.86"/><text fill="#000000" font-family="sans-serif" font-size="13" lengthAdjust="spacing" textLength="157.46" x="313.41" y="646.7769">responses generated by</text></g><!--reverse link VideoService to VideoEmbeddingStore--><g class="link" data-entity-1="VideoService" data-entity-2="VideoEmbeddingStore" data-source-line="122" data-uid="lnk18" id="link_VideoService_VideoEmbeddingStore"><path codeLine="122" d="M1055.7773,572.6586 C1088.6573,615.4886 1124.47,662.15 1157.35,704.99" fill="none" id="VideoService-backto-VideoEmbeddingStore" style="stroke:#181818;stroke-width:1;"/><polygon fill="#181818" points="1048.47,563.14,1048.9508,570.3351,1055.7773,572.6586,1055.2965,565.4635,1048.47,563.14" style="stroke:#181818;stroke-width:1;"/><text fill="#000000" font-family="sans-serif" font-size="13" lengthAdjust="spacing" textLength="29.7832" x="1115.41" y="646.7769">uses</text></g><!--reverse link VideoService to YouTubeInfoExtractor--><g class="link" data-entity-1="VideoService" data-entity-2="YouTubeInfoExtractor" data-source-line="123" data-uid="lnk19" id="link_VideoService_YouTubeInfoExtractor"><path codeLine="123" d="M1167.575,559.4425 C1248.975,591.2925 1337.31,630.49 1420.41,680.71 C1439.58,692.3 1459.05,706.95 1476.13,720.96" fill="none" id="VideoService-backto-YouTubeInfoExtractor" style="stroke:#181818;stroke-width:1;"/><polygon fill="#181818" points="1156.4,555.07,1160.53,560.9813,1167.575,559.4425,1163.445,553.5313,1156.4,555.07" style="stroke:#181818;stroke-width:1;"/><text fill="#000000" font-family="sans-serif" font-size="13" lengthAdjust="spacing" textLength="29.7832" x="1366.41" y="646.7769">uses</text></g><!--reverse link VideoService to YouTubeTranscriber--><g class="link" data-entity-1="VideoService" data-entity-2="YouTubeTranscriber" data-source-line="124" data-uid="lnk20" id="link_VideoService_YouTubeTranscriber"><path codeLine="124" d="M943.3146,572.6754 C906.3046,621.1154 863.55,677.09 829.96,721.06" fill="none" id="VideoService-backto-YouTubeTranscriber" style="stroke:#181818;stroke-width:1;"/><polygon fill="#181818" points="950.6,563.14,943.7789,565.4792,943.3146,572.6754,950.1358,570.3361,950.6,563.14" style="stroke:#181818;stroke-width:1;"/><text fill="#000000" font-family="sans-serif" font-size="13" lengthAdjust="spacing" textLength="29.7832" x="897.41" y="646.7769">uses</text></g><!--reverse link VideoEmbeddingStore to Chroma--><g class="link" data-entity-1="VideoEmbeddingStore" data-entity-2="Chroma" data-source-line="125" data-uid="lnk22" id="link_VideoEmbeddingStore_Chroma"><path codeLine="125" d="M1206.41,847.14 C1206.41,881.85 1206.41,910.61 1206.41,935.64" fill="none" id="VideoEmbeddingStore-backto-Chroma" style="stroke:#181818;stroke-width:1;"/><polygon fill="#181818" points="1206.41,835.14,1202.41,841.14,1206.41,847.14,1210.41,841.14,1206.41,835.14" style="stroke:#181818;stroke-width:1;"/><text fill="#000000" font-family="sans-serif" font-size="13" lengthAdjust="spacing" textLength="55.9229" x="1207.41" y="902.1569">stores in</text></g><!--SRC=[XLR9Zjiu4BtxAmHV8gVj7_2jCGaQ0MOksO11q21eiMmHuQ9myOoHph-dk4Wc9GNT1xTKh8LLzLwLEa6jRRvOCCtFJOD_3vmT6-jCUW59kIZU1zJ-Jnj6UchxKcxW3CO08uAgYwSNM3sKca7fhZD07SgfEpOCdnoNa4xmMeu8VU5gVkAqeu9SEGDjZmrNBebfrscl776teOpDBRc2uMSEcDP9Qn75XqCsygu7vNY74TenjrsX-E2749sa541rODlmR57fgZbBIXTmfEkf8pstJfjRYwT_u-Etlr3ulFcrsNInp5_3fLVhVDFU-HEGIkYu4sKkhlVofB0Xn9koYivGPJl31uS5USSxzmsFzl46pqc3mPbwuTQQGw_ea9u4J8SsNnvLihbrr7bR65sXmppnjek0qUhvjUuoRwZZMX4BdLQixACVXAOCp3tQs2pu7nFj797WABgZRTM3CxYk9qKfsbcB59ZGIUkbfAb5CnWIa2TWZAlBtNPgNUZaQkSyKgTkMuHcBP9WRL7PVzBhgsLAu5ixGLXZAVWLra3Da6WfGfl_Bz6gbSDwLbMWfklHOqJoiW3vpgirYDYl9S6_SeN4Wggw-X2IGM39OPvRllECoMDsPsqapGceEe4h5JoojJYCrQa9-0dCbNTJ9bFNIU0kHenAxqVffo2iRZ0OZMF0fX7K8XLtsQQ6QOQ1EklspkvTuikV8Fi7nGLue- -S-fJSnyUdMMf2o6D4xfFM5m5FoGts-F53xW788OXyoFkCn7DLfYVF1GjuuAeru0m7dANx9a-vNVJDrUoE1koWbONsXmTpspSPQhjg8QGAHgIDTDatQ633L2WZL1a-uhYUfOW316z6liEjHBAuQCDTBvVmoLGFh6tZSjitnTmFUt2v6LxNpbwT_Wwg3TeLBCF-kUN3-3lQrhYi8RU4PrwUorvEXZO7jA4pHakwc0kfsCMWIu8mJdVBiGzX913B9Mu8C_PpxDUe_qvtNcAffbKZe9wbXK7Dnd-r_une_u0KUPz8eyUlaFdCZpHAL2jfCR6CvSFbB41vFbiD_ZcpxmJpqC7xdPi5JASzkRZCoYvjv-MwbpSw5n4tzp3tnttZg0bUWwzi7Qx_fla88cvFs_F1RkAtsylBuQ1_fYrrRBRuTTP8gcxRJVhac1rF7pCCz-vs4yLPPHppg1M8Y_IssnJYbpuSNbug3g9IoHFMdAQ8MRiQkAYUcPzLO-2iMKolUCCqH6mppfN2-QZtzd1OPGxQ8mVjYlOgubvLBp5IAyy21vjjOjusQCQ5OaEDVmC0]--></g></svg>